<?xml version="1.0" encoding="UTF-8"?>
<svg version="1.1" xmlns="http://www.w3.org/2000/svg" width="474" height="567">
<path d="M0 0 C0.80824219 0.10183594 1.61648438 0.20367187 2.44921875 0.30859375 C3.06410156 0.39238281 3.67898438 0.47617188 4.3125 0.5625 C4.3125 1.5525 4.3125 2.5425 4.3125 3.5625 C6.6924816 5.71537577 6.6924816 5.71537577 9.6875 7.75 C11.18410156 8.82314453 11.18410156 8.82314453 12.7109375 9.91796875 C15.08129914 11.74060907 15.08129914 11.74060907 17.3125 11.5625 C19.01502713 13.19251746 20.67562013 14.86656963 22.3125 16.5625 C24.0726867 18.19902635 25.84380919 19.8238597 27.625 21.4375 C29.07132812 22.74847656 29.07132812 22.74847656 30.546875 24.0859375 C32.80196514 26.10532613 35.07752721 28.09190342 37.375 30.0625 C42.24385283 34.30376681 47.01251074 38.74263499 51.3125 43.5625 C51.3125 44.2225 51.3125 44.8825 51.3125 45.5625 C51.9725 45.5625 52.6325 45.5625 53.3125 45.5625 C54.70250251 47.18220632 56.02516855 48.8600508 57.3125 50.5625 C58.0240625 51.44164062 58.735625 52.32078125 59.46875 53.2265625 C95.42170883 98.64713382 110.97135253 153.97390619 106.3125 211.5625 C106.22871094 212.60760742 106.14492188 213.65271484 106.05859375 214.72949219 C102.72286429 253.59543857 91.0602307 292.91829717 69.3125 325.5625 C68.70277344 326.51382812 68.09304688 327.46515625 67.46484375 328.4453125 C51.33454405 353.28663647 30.94050397 376.81144186 6.3125 393.5625 C5.58546875 394.05991699 4.8584375 394.55733398 4.109375 395.06982422 C-6.76092019 402.4532969 -17.69767667 409.16722979 -29.6875 414.5625 C-30.33154785 414.85817871 -30.9755957 415.15385742 -31.63916016 415.45849609 C-66.37784053 431.24255641 -102.75403666 433.92183888 -140.42578125 433.79296875 C-142.81105016 433.7917696 -145.19631955 433.79132533 -147.58158875 433.7915802 C-152.5437625 433.7900322 -157.50586241 433.78188127 -162.46801758 433.76831055 C-168.70887291 433.75142397 -174.94964777 433.74758654 -181.19052315 433.74812126 C-203.60294065 433.74767092 -226.01215628 433.70318251 -248.41796875 433.11328125 C-249.18612726 433.09398245 -249.95428577 433.07468365 -250.74572182 433.05480003 C-252.86348964 432.99963256 -254.9809136 432.93767736 -257.09838867 432.87231445 C-258.2615007 432.83685013 -259.42461273 432.8013858 -260.62297058 432.7648468 C-263.4070697 432.58101644 -265.96405283 432.13770744 -268.6875 431.5625 C-269.6775 431.5625 -270.6675 431.5625 -271.6875 431.5625 C-273.31920125 427.86397717 -274.6875 424.62824554 -274.6875 420.5625 C-273.02805537 417.59268486 -271.09777994 414.96667797 -268.6875 412.5625 C-268.0275 412.5625 -267.3675 412.5625 -266.6875 412.5625 C-266.419375 411.923125 -266.15125 411.28375 -265.875 410.625 C-264.6875 408.5625 -264.6875 408.5625 -261.6875 407.5625 C-260.98598848 406.2471659 -260.32224075 404.91132408 -259.6875 403.5625 C-258.1875 401.8125 -258.1875 401.8125 -256.6875 400.5625 C-256.0275 400.5625 -255.3675 400.5625 -254.6875 400.5625 C-254.419375 399.923125 -254.15125 399.28375 -253.875 398.625 C-252.6875 396.5625 -252.6875 396.5625 -249.6875 395.5625 C-249.254375 394.69625 -249.254375 394.69625 -248.8125 393.8125 C-247.29137378 390.77024755 -245.20036104 388.82407493 -242.6875 386.5625 C-242.0275 386.5625 -241.3675 386.5625 -240.6875 386.5625 C-240.3471875 385.69625 -240.3471875 385.69625 -240 384.8125 C-238.34966522 381.98335466 -236.25491423 380.57975404 -233.6875 378.5625 C-232.965625 377.655 -232.24375 376.7475 -231.5 375.8125 C-230.6028125 374.69875 -230.6028125 374.69875 -229.6875 373.5625 C-229.0275 373.5625 -228.3675 373.5625 -227.6875 373.5625 C-227.6875 372.9025 -227.6875 372.2425 -227.6875 371.5625 C-225.27483529 368.94303546 -222.79381161 366.64656034 -220 364.4375 C-217.49596331 362.59688927 -217.49596331 362.59688927 -215.6875 359.5625 C-215.0275 359.5625 -214.3675 359.5625 -213.6875 359.5625 C-213.419375 358.923125 -213.15125 358.28375 -212.875 357.625 C-211.6875 355.5625 -211.6875 355.5625 -208.6875 354.5625 C-208.39875 353.964375 -208.11 353.36625 -207.8125 352.75 C-206.32741302 349.86233088 -204.22868663 348.55914664 -201.6875 346.5625 C-200.33363064 344.91247172 -199.00071858 343.2450613 -197.6875 341.5625 C-195.17563108 338.91842746 -192.65566151 336.53689078 -189.8125 334.25 C-187.58431355 332.42414005 -185.74862596 330.52716476 -183.90771484 328.31396484 C-178.62695696 322.21672121 -172.84314667 316.60794391 -167.1254158 310.92525101 C-165.00505424 308.81776068 -162.88792707 306.70706766 -160.77157593 304.59555054 C-156.28803323 300.12337002 -151.80054469 295.65516193 -147.3125 291.1875 C-142.08900856 285.98761035 -136.86714738 280.78610486 -131.64945602 275.58039474 C-129.56135224 273.49878294 -127.47026689 271.42019786 -125.37905884 269.34170532 C-124.10753979 268.07381641 -122.83615959 266.80578823 -121.56494141 265.53759766 C-120.98108673 264.9589093 -120.39723206 264.38022095 -119.79568481 263.78399658 C-116.88154854 260.94672369 -116.88154854 260.94672369 -114.6875 257.5625 C-114.0275 257.5625 -113.3675 257.5625 -112.6875 257.5625 C-112.625625 256.964375 -112.56375 256.36625 -112.5 255.75 C-111.36467105 252.69334514 -109.47597225 252.09615974 -106.6875 250.5625 C-106.3575 249.9025 -106.0275 249.2425 -105.6875 248.5625 C-105.0275 248.5625 -104.3675 248.5625 -103.6875 248.5625 C-103.3575 247.5725 -103.0275 246.5825 -102.6875 245.5625 C-100.82767565 243.72003015 -98.96096802 241.97747765 -97 240.25 C-95.90412645 239.2652363 -94.80906551 238.27956751 -93.71484375 237.29296875 C-93.19003418 236.82165527 -92.66522461 236.3503418 -92.12451172 235.86474609 C-88.60017606 232.67092918 -85.33620935 229.53556403 -82.6875 225.5625 C-81.52986342 224.48774271 -80.33995819 223.44700597 -79.125 222.4375 C-76.8469229 220.56493029 -76.8469229 220.56493029 -74.6875 218.5625 C-71.375 218.1875 -71.375 218.1875 -67.6875 218.5625 C-65.12528923 221.12471077 -62.80219371 223.69736453 -62.57283211 227.42721558 C-62.57765036 228.18970612 -62.58246861 228.95219666 -62.58743286 229.73779297 C-62.59039368 230.612724 -62.59335449 231.48765503 -62.59640503 232.38909912 C-62.60471344 233.35124329 -62.61302185 234.31338745 -62.62158203 235.3046875 C-62.62859131 236.82186371 -62.62859131 236.82186371 -62.63574219 238.36968994 C-62.6462625 240.57087259 -62.65893092 242.77204576 -62.67346573 244.97320557 C-62.69540412 248.45202801 -62.70953686 251.93079667 -62.72116089 255.40966797 C-62.75484259 265.30248406 -62.79652304 275.19521063 -62.85888672 285.08789062 C-62.89643712 291.13315607 -62.91952748 297.17832929 -62.93319321 303.22369385 C-62.9412734 305.53308688 -62.95491832 307.84246714 -62.97412491 310.15179443 C-63.0004645 313.37475093 -63.00848445 316.59726214 -63.01220703 319.8203125 C-63.0245639 320.78245667 -63.03692078 321.74460083 -63.0496521 322.73590088 C-63.04697327 323.61083191 -63.04429443 324.48576294 -63.04153442 325.38720703 C-63.04763072 326.53094284 -63.04763072 326.53094284 -63.05385017 327.69778442 C-62.93295462 328.31314056 -62.81205906 328.9284967 -62.6875 329.5625 C-61.6975 330.2225 -60.7075 330.8825 -59.6875 331.5625 C-41.60446321 326.48655985 -25.50564937 310.48975221 -14.5625 295.75 C-13.78265747 294.70658447 -13.78265747 294.70658447 -12.98706055 293.64208984 C-9.25077123 288.54902764 -6.15265144 283.39377193 -3.6875 277.5625 C-2.91414887 276.01579774 -2.09999713 274.48945757 -1.26953125 272.97265625 C6.99552608 257.33655441 12.86668399 240.15501146 12.1875 222.34765625 C12.3125 219.5625 12.3125 219.5625 14.3125 216.5625 C14.60572021 213.70408845 14.60572021 213.70408845 14.54296875 210.4609375 C14.54103516 209.24792969 14.53910156 208.03492188 14.53710938 206.78515625 C14.52486328 205.51542969 14.51261719 204.24570312 14.5 202.9375 C14.49935547 201.69097656 14.49871094 200.44445312 14.49804688 199.16015625 C14.9275234 188.08218779 14.9275234 188.08218779 12.3125 177.5625 C12.23 176.345625 12.1475 175.12875 12.0625 173.875 C11.54517205 168.50881851 9.8256879 163.66822021 8.04003906 158.61645508 C6.3125 153.72575416 6.3125 153.72575416 6.3125 151.5625 C5.6525 151.2325 4.9925 150.9025 4.3125 150.5625 C3.961875 149.386875 3.61125 148.21125 3.25 147 C-4.75130965 121.96619952 -25.61806513 101.3791954 -45.6875 85.5625 C-47.78143637 83.8250642 -49.85845764 82.06771204 -51.9375 80.3125 C-55.14852341 77.61857647 -58.3408864 75.03552082 -61.8125 72.6875 C-65.43330295 70.01125434 -66.33151449 68.49499277 -67.125 64.1875 C-66.46127233 60.20513396 -64.49335519 58.43516126 -61.6875 55.5625 C-61.0275 55.5625 -60.3675 55.5625 -59.6875 55.5625 C-59.44362549 54.99265381 -59.19975098 54.42280762 -58.94848633 53.83569336 C-57.4586548 51.14995834 -55.69844824 49.34774827 -53.51171875 47.19140625 C-52.26938477 45.95874023 -52.26938477 45.95874023 -51.00195312 44.70117188 C-50.13505859 43.85103516 -49.26816406 43.00089844 -48.375 42.125 C-47.09206055 40.8555957 -47.09206055 40.8555957 -45.78320312 39.56054688 C-43.42139882 37.2243547 -41.05540102 34.89251028 -38.6875 32.5625 C-34.71296863 28.64557054 -30.91133497 24.59689774 -27.125 20.5 C-22.47686265 15.50286629 -17.79601769 10.54323464 -13 5.6875 C-12.26124634 4.9294104 -12.26124634 4.9294104 -11.50756836 4.15600586 C-7.67975355 0.31746701 -5.33727047 -0.69616571 0 0 Z " fill="#F6F6F2" transform="translate(359.6875,126.4375)"/>
<path d="M0 0 C1.58892901 -0.00300304 3.17785729 -0.00640813 4.76678467 -0.01017761 C9.02471636 -0.01889775 13.28262788 -0.02135036 17.54056764 -0.0219934 C20.21002229 -0.02270988 22.87947199 -0.02485518 25.5489254 -0.02749062 C34.88662409 -0.03669875 44.22430864 -0.04083053 53.56201172 -0.04003906 C62.22983367 -0.03943695 70.89759367 -0.05002649 79.56539994 -0.06578273 C87.04612607 -0.07889087 94.52683198 -0.08422171 102.00756949 -0.08358365 C106.45890891 -0.08332997 110.91019292 -0.08611003 115.36152077 -0.0967617 C119.54367095 -0.10650018 123.72571327 -0.10648282 127.90786743 -0.09924507 C129.43315986 -0.0982069 130.95845923 -0.10051593 132.48373985 -0.10660553 C155.57187657 -0.19274884 155.57187657 -0.19274884 160.57864094 4.1018343 C162.35863776 6.21781377 162.94995201 7.31506997 163.29760742 10.02026367 C163.40073242 10.65706055 163.50385742 11.29385742 163.61010742 11.94995117 C162.72352763 18.17817421 156.60425647 23.12400132 152.35766602 27.34399414 C151.66779099 28.03737381 150.97791595 28.73075348 150.26713562 29.44514465 C147.99842491 31.72261821 145.7225248 33.99274535 143.44604492 36.26245117 C141.86442283 37.84542086 140.28309771 39.4286873 138.70205688 41.01223755 C135.39502647 44.32221132 132.08441805 47.62855297 128.77124023 50.93237305 C124.51602291 55.17615903 120.26989646 59.42891009 116.02637291 63.6843853 C112.76673378 66.95123246 109.50236977 70.21332462 106.2365303 73.47397232 C104.6680972 75.04106793 103.10115758 76.60965973 101.53571701 78.17974472 C99.35485355 80.36566001 97.16772985 82.54510729 94.97875977 84.72290039 C94.32833206 85.37737656 93.67790436 86.03185272 93.00776672 86.7061615 C88.52614114 91.14526367 88.52614114 91.14526367 86.29760742 91.14526367 C86.03313309 91.73505508 85.76865875 92.3248465 85.49617004 92.93251038 C84.25410089 95.22558424 82.96633845 96.71804793 81.12060547 98.54931641 C80.47621017 99.19356064 79.83181488 99.83780487 79.16789246 100.50157166 C78.12415215 101.52982811 78.12415215 101.52982811 77.05932617 102.57885742 C76.34154495 103.29380875 75.62376373 104.00876007 74.88423157 104.74537659 C72.58917963 107.02924705 70.28728466 109.306078 67.98510742 111.58276367 C66.44623681 113.11159852 64.90782012 114.64089041 63.36987305 116.1706543 C60.53698699 118.9872231 57.70151041 121.80112521 54.86279297 124.61181641 C51.99913906 127.44777313 49.14459966 130.29256541 46.29760742 133.14526367 C42.63094076 136.81193034 38.96427409 140.47859701 35.29760742 144.14526367 C34.4081543 145.03600586 33.51870117 145.92674805 32.60229492 146.84448242 C31.0521141 148.39203582 29.49198717 149.9296834 27.92260742 151.45776367 C25.07270313 154.37552283 22.45904923 157.43940997 19.84838867 160.57104492 C19.33663086 161.09053711 18.82487305 161.6100293 18.29760742 162.14526367 C17.63760742 162.14526367 16.97760742 162.14526367 16.29760742 162.14526367 C16.29760742 162.80526367 16.29760742 163.46526367 16.29760742 164.14526367 C14.67853135 165.85819923 13.00129716 167.5164614 11.29760742 169.14526367 C10.40041992 170.04245117 9.50323242 170.93963867 8.57885742 171.86401367 C5.81844076 174.62443034 3.05802409 177.38484701 0.29760742 180.14526367 C-0.56735352 181.02182617 -1.43231445 181.89838867 -2.32348633 182.80151367 C-4.2465764 184.69618369 -6.17733352 186.44034305 -8.26489258 188.14526367 C-11.14467141 190.57721513 -13.39896649 193.15080975 -15.70239258 196.14526367 C-18.41730156 199.00692449 -21.24199813 201.61972579 -24.26489258 204.14526367 C-27.14498122 206.57027337 -29.37664056 209.17792489 -31.70239258 212.14526367 C-33.51489258 214.02026367 -33.51489258 214.02026367 -35.70239258 215.14526367 C-39.43069731 215.07985482 -41.75575409 214.99723831 -44.57739258 212.45776367 C-47.09427797 207.28416593 -46.83924267 201.60256347 -46.80004883 195.96289062 C-46.79858856 195.16348053 -46.7971283 194.36407043 -46.79562378 193.54043579 C-46.79183041 191.81027416 -46.78572723 190.08011636 -46.77755737 188.34996986 C-46.76470289 185.59285838 -46.75825314 182.83579557 -46.75341797 180.07865906 C-46.74009633 173.22005721 -46.71610065 166.36150078 -46.6920166 159.50292969 C-46.67206879 153.71854583 -46.65650948 147.93418051 -46.64645386 142.14977074 C-46.64009213 139.46767698 -46.62757831 136.78566124 -46.61474609 134.10359192 C-46.58152188 122.75217792 -46.99021496 111.47401643 -47.70239258 100.14526367 C-52.88016592 97.556377 -59.0119706 99.43759987 -64.26489258 101.08276367 C-64.95091553 101.29513672 -65.63693848 101.50750977 -66.34375 101.72631836 C-72.8705722 103.91367769 -78.29914712 107.33003962 -83.90942383 111.25463867 C-86.70239258 113.14526367 -86.70239258 113.14526367 -89.70239258 114.14526367 C-89.70239258 114.80526367 -89.70239258 115.46526367 -89.70239258 116.14526367 C-91.13598633 117.48510742 -91.13598633 117.48510742 -93.13989258 119.08276367 C-102.78083679 127.34643014 -112.50924324 139.47978791 -115.80004883 152.00463867 C-116.09782227 153.04104492 -116.3955957 154.07745117 -116.70239258 155.14526367 C-117.36239258 155.47526367 -118.02239258 155.80526367 -118.70239258 156.14526367 C-119.47375432 158.56782165 -120.12077297 160.92620372 -120.70239258 163.39526367 C-120.87609375 164.12108643 -121.04979492 164.84690918 -121.22875977 165.59472656 C-128.10987653 195.02667019 -124.88349111 224.21239762 -109.17895508 250.30151367 C-100.8045788 263.60947534 -89.7921421 275.08932436 -78.70239258 286.14526367 C-77.62552548 287.25463552 -76.55009073 288.36539893 -75.47583008 289.47729492 C-74.34311249 290.63754384 -73.2102987 291.79769884 -72.07739258 292.95776367 C-71.50504883 293.55524414 -70.93270508 294.15272461 -70.34301758 294.76831055 C-68.85250044 296.28482508 -67.28208313 297.72187496 -65.70239258 299.14526367 C-64.71239258 299.14526367 -63.72239258 299.14526367 -62.70239258 299.14526367 C-62.64051758 299.70213867 -62.57864258 300.25901367 -62.51489258 300.83276367 C-60.6837765 306.04440173 -55.25011311 309.42546393 -51.05786133 312.81323242 C-50.61055664 313.25280273 -50.16325195 313.69237305 -49.70239258 314.14526367 C-49.70239258 314.80526367 -49.70239258 315.46526367 -49.70239258 316.14526367 C-49.12424805 316.39961182 -48.54610352 316.65395996 -47.95043945 316.91601562 C-43.71985622 319.22932867 -40.58087778 322.93993855 -37.20239258 326.33276367 C-36.44313477 327.0759082 -35.68387695 327.81905273 -34.90161133 328.5847168 C-30.67080645 332.81181694 -27.19022157 336.67475141 -24.70239258 342.14526367 C-25.37444184 346.02821495 -26.50756669 348.74914425 -29.70239258 351.14526367 C-30.36239258 351.14526367 -31.02239258 351.14526367 -31.70239258 351.14526367 C-31.70239258 351.80526367 -31.70239258 352.46526367 -31.70239258 353.14526367 C-33.31176758 354.69604492 -33.31176758 354.69604492 -35.45239258 356.45776367 C-38.62340805 359.14478205 -41.12482561 361.88034551 -43.70239258 365.14526367 C-45.68499684 366.83258644 -47.68562678 368.49892425 -49.70239258 370.14526367 C-51.3787449 371.80218807 -53.04433265 373.47003448 -54.70239258 375.14526367 C-55.58540039 376.00506836 -56.4684082 376.86487305 -57.37817383 377.75073242 C-58.24829102 378.60280273 -59.1184082 379.45487305 -60.01489258 380.33276367 C-60.89790039 381.19256836 -61.7809082 382.05237305 -62.69067383 382.93823242 C-64.92694218 384.89389722 -64.92694218 384.89389722 -64.70239258 387.14526367 C-65.40106445 387.55518555 -66.09973633 387.96510742 -66.81958008 388.38745117 C-70.39209857 390.56581611 -72.95722246 393.25694293 -75.82739258 396.27026367 C-81.2990745 402.01082431 -81.2990745 402.01082431 -84.70239258 403.14526367 C-92.72852692 400.52133514 -97.85885306 394.99894099 -103.70239258 389.14526367 C-105.02780588 387.81963531 -106.35333773 386.49412549 -107.67895508 385.16870117 C-162.90239258 329.94526367 -162.90239258 329.94526367 -165.26489258 326.70776367 C-168.55664073 322.27563102 -172.04141427 318.01673035 -175.55395508 313.75854492 C-177.00163161 311.99764383 -178.43370375 310.22381159 -179.85083008 308.43823242 C-181.65121902 306.12583433 -181.65121902 306.12583433 -183.70239258 304.14526367 C-183.70239258 303.48526367 -183.70239258 302.82526367 -183.70239258 302.14526367 C-184.38540289 300.83882481 -185.12398146 299.56114288 -185.88989258 298.30151367 C-186.34106445 297.54999023 -186.79223633 296.7984668 -187.25708008 296.02416992 C-187.97250977 294.84661133 -187.97250977 294.84661133 -188.70239258 293.64526367 C-189.6438935 292.09560405 -190.58159198 290.54362581 -191.51489258 288.98901367 C-191.93383789 288.30000977 -192.3527832 287.61100586 -192.78442383 286.90112305 C-193.70239258 285.14526367 -193.70239258 285.14526367 -193.70239258 283.14526367 C-194.69239258 283.14526367 -195.68239258 283.14526367 -196.70239258 283.14526367 C-198.99005496 280.68162726 -200.27065246 278.49124957 -200.70239258 275.14526367 C-200.37239258 274.15526367 -200.04239258 273.16526367 -199.70239258 272.14526367 C-200.14145272 270.24856844 -200.14145272 270.24856844 -200.99536133 268.25854492 C-201.29418213 267.49292236 -201.59300293 266.7272998 -201.90087891 265.93847656 C-202.22725342 265.11984131 -202.55362793 264.30120605 -202.88989258 263.45776367 C-208.499969 248.82308457 -213.31076144 232.96285402 -212.70239258 217.14526367 C-214.02239258 216.81526367 -215.34239258 216.48526367 -216.70239258 216.14526367 C-216.37239258 214.49526367 -216.04239258 212.84526367 -215.70239258 211.14526367 C-215.37239258 211.14526367 -215.04239258 211.14526367 -214.70239258 211.14526367 C-214.67541069 209.52035413 -214.65600501 207.89531734 -214.63989258 206.27026367 C-214.62829102 205.3653418 -214.61668945 204.46041992 -214.60473633 203.52807617 C-214.5399 201.12840517 -214.5399 201.12840517 -215.70239258 199.14526367 C-215.04239258 199.14526367 -214.38239258 199.14526367 -213.70239258 199.14526367 C-213.71286621 198.48631104 -213.72333984 197.8273584 -213.73413086 197.1484375 C-214.06784015 172.95873827 -214.06784015 172.95873827 -211.70239258 162.14526367 C-212.36239258 162.14526367 -213.02239258 162.14526367 -213.70239258 162.14526367 C-213.20739258 161.15526367 -213.20739258 161.15526367 -212.70239258 160.14526367 C-212.04239258 160.47526367 -211.38239258 160.80526367 -210.70239258 161.14526367 C-210.68168701 160.59233643 -210.66098145 160.03940918 -210.63964844 159.46972656 C-210.10757093 151.43657469 -207.77833434 144.19389012 -205.26489258 136.58276367 C-204.85204032 135.28807845 -204.43992585 133.99315773 -204.02856445 132.69799805 C-201.75632156 125.7107585 -201.75632156 125.7107585 -200.70239258 123.14526367 C-199.71239258 122.65026367 -199.71239258 122.65026367 -198.70239258 122.14526367 C-197.95070239 120.31654763 -197.95070239 120.31654763 -197.35473633 118.11401367 C-195.82776496 113.28416796 -193.75246472 109.04589606 -191.26489258 104.64526367 C-190.8360376 103.87915771 -190.40718262 103.11305176 -189.96533203 102.32373047 C-184.74156896 93.19125795 -178.65975355 84.57183919 -172.23608398 76.24438477 C-169.6643923 72.84288185 -168.70239258 71.54220764 -168.70239258 67.14526367 C-167.38239258 67.14526367 -166.06239258 67.14526367 -164.70239258 67.14526367 C-162.96420976 65.9252148 -162.96420976 65.9252148 -161.41723633 64.18041992 C-160.80952393 63.54934326 -160.20181152 62.9182666 -159.57568359 62.26806641 C-158.61746704 61.24821655 -158.61746704 61.24821655 -157.63989258 60.20776367 C-149.75412381 52.06363335 -141.42543714 45.02424213 -132.26098633 38.33666992 C-130.5590759 37.0901791 -130.5590759 37.0901791 -128.70239258 35.14526367 C-126.88761371 34.03112728 -125.05071997 32.95281182 -123.20239258 31.89526367 C-118.76470127 29.36263071 -118.76470127 29.36263071 -114.42504883 26.66870117 C-108.50887536 22.83870099 -102.21986147 20.05510147 -95.76489258 17.27026367 C-94.82782471 16.86437012 -93.89075684 16.45847656 -92.92529297 16.0402832 C-92.0383374 15.66500488 -91.15138184 15.28972656 -90.23754883 14.90307617 C-89.43712158 14.56421387 -88.63669434 14.22535156 -87.81201172 13.8762207 C-85.70239258 13.14526367 -85.70239258 13.14526367 -82.70239258 13.14526367 C-82.37239258 12.48526367 -82.04239258 11.82526367 -81.70239258 11.14526367 C-79.3359375 10.32324219 -79.3359375 10.32324219 -76.18286133 9.52416992 C-75.0250415 9.22978027 -73.86722168 8.93539063 -72.67431641 8.63208008 C-71.42545654 8.32705566 -70.17659668 8.02203125 -68.88989258 7.70776367 C-67.61847412 7.39500488 -66.34705566 7.08224609 -65.03710938 6.76000977 C-57.73355582 5.00443195 -50.44332796 3.39500488 -43.01489258 2.27026367 C-41.96241333 2.10892944 -41.96241333 2.10892944 -40.88867188 1.94433594 C-27.36511906 0.09986372 -13.62520173 -0.00525551 0 0 Z M-198.70239258 275.14526367 C-197.70239258 277.14526367 -197.70239258 277.14526367 -197.70239258 277.14526367 Z M-196.70239258 279.14526367 C-195.70239258 281.14526367 -195.70239258 281.14526367 -195.70239258 281.14526367 Z " fill="#F5F4EF" transform="translate(220.702392578125,11.854736328125)"/>
<path d="M0 0 C3.6875 0.375 3.6875 0.375 6.0625 2.75 C8.11694079 6.06871204 8.81189533 7.70034325 8.78756714 11.55029297 C8.78460632 12.425224 8.78164551 13.30015503 8.77859497 14.20159912 C8.77028656 15.16374329 8.76197815 16.12588745 8.75341797 17.1171875 C8.74640869 18.63436371 8.74640869 18.63436371 8.73925781 20.18218994 C8.7287375 22.38337259 8.71606908 24.58454576 8.70153427 26.78570557 C8.67959588 30.26452801 8.66546314 33.74329667 8.65383911 37.22216797 C8.62015741 47.11498406 8.57847696 57.00771063 8.51611328 66.90039062 C8.47856288 72.94565607 8.45547252 78.99082929 8.44180679 85.03619385 C8.4337266 87.34558688 8.42008168 89.65496714 8.40087509 91.96429443 C8.3745355 95.18725093 8.36651555 98.40976214 8.36279297 101.6328125 C8.34425766 103.07602875 8.34425766 103.07602875 8.3253479 104.54840088 C8.32802673 105.42333191 8.33070557 106.29826294 8.33346558 107.19970703 C8.32736928 108.34344284 8.32736928 108.34344284 8.32114983 109.51028442 C8.50249316 110.43331863 8.50249316 110.43331863 8.6875 111.375 C9.6775 112.035 10.6675 112.695 11.6875 113.375 C29.77053679 108.29905985 45.86935063 92.30225221 56.8125 77.5625 C57.33239502 76.86688965 57.85229004 76.1712793 58.38793945 75.45458984 C62.12422877 70.36152764 65.22234856 65.20627193 67.6875 59.375 C68.46085113 57.82829774 69.27500287 56.30195757 70.10546875 54.78515625 C76.41068919 42.85673702 80.01990771 30.30627609 83.6875 17.375 C87.5987392 27.9431165 77.04091065 46.79990287 72.6875 56.375 C62.60160203 77.14181966 45.7756349 96.76317832 26.375 109.375 C25.51297974 109.93610474 25.51297974 109.93610474 24.63354492 110.50854492 C20.34218695 113.19383154 16.15912966 115.54743928 11 115.1875 C8.4042633 114.2754844 7.39506517 113.50797305 5.6875 111.375 C5.32952976 109.37720585 5.32952976 109.37720585 5.35365295 107.0549469 C5.35613792 105.73220261 5.35613792 105.73220261 5.3586731 104.38273621 C5.3757431 103.41797867 5.39281311 102.45322113 5.41040039 101.45922852 C5.41638748 100.4410907 5.42237457 99.42295288 5.42854309 98.3739624 C5.44332036 96.16075435 5.46495194 93.94758403 5.49257088 91.73449898 C5.53539987 88.23399499 5.55879261 84.73385322 5.57676697 81.23313904 C5.63190982 71.27943897 5.72648348 61.32615978 5.82446289 51.37280273 C5.88302688 45.2875044 5.9222273 39.20231568 5.95019341 33.11680412 C5.97242867 29.66424355 6.01791931 26.21246333 6.06373596 22.76014709 C6.07506904 20.64682639 6.08521919 18.53349889 6.09399414 16.42016602 C6.11308838 15.45743271 6.13218262 14.4946994 6.15185547 13.50279236 C6.15363349 8.30581421 6.15363349 8.30581421 3.97459412 3.68467712 C1.78410888 2.14924078 1.78410888 2.14924078 -0.66887665 2.53706264 C-3.95884159 3.57986797 -5.46420904 5.03140708 -7.89756775 7.47232056 C-8.78767044 8.35547943 -9.67777313 9.23863831 -10.59484863 10.14855957 C-11.56854963 11.13482197 -12.54205379 12.12127873 -13.51538086 13.10791016 C-14.54985371 14.14187409 -15.58520042 15.17496437 -16.62135315 16.20724487 C-19.43214915 19.01261945 -22.23035759 21.8302519 -25.02636409 24.65035677 C-27.95817252 27.6034735 -30.90093767 30.54563244 -33.84242249 33.48910522 C-38.78433794 38.43747054 -43.71879231 43.39317339 -48.64819336 48.35400391 C-54.96215535 54.7081718 -61.28744421 61.05093209 -67.61672115 67.38984108 C-73.06962588 72.85107355 -78.51807013 78.31674963 -83.96539235 83.78354979 C-85.13154833 84.95374614 -86.29785433 86.123793 -87.46431041 87.2936902 C-90.79469528 90.63391562 -94.1226786 93.97649531 -97.44676781 97.3229866 C-98.45126586 98.33356308 -99.45656879 99.34334031 -100.46276474 100.35222626 C-106.85049583 106.75553531 -106.85049583 106.75553531 -112.83326721 113.53182983 C-113.65141403 114.47007599 -114.46956085 115.40832214 -115.3125 116.375 C-115.9725 116.375 -116.6325 116.375 -117.3125 116.375 C-117.8075 117.86 -117.8075 117.86 -118.3125 119.375 C-118.9725 119.375 -119.6325 119.375 -120.3125 119.375 C-120.5496875 119.93703125 -120.786875 120.4990625 -121.03125 121.078125 C-122.60197697 123.89394042 -124.52721464 125.85455416 -126.8125 128.125 C-128.00359375 129.32382812 -128.00359375 129.32382812 -129.21875 130.546875 C-131.3125 132.375 -131.3125 132.375 -133.3125 132.375 C-133.6425 133.365 -133.9725 134.355 -134.3125 135.375 C-134.9725 135.375 -135.6325 135.375 -136.3125 135.375 C-136.539375 135.931875 -136.76625 136.48875 -137 137.0625 C-138.6828574 140.02753447 -140.84871374 142.02853689 -143.3125 144.375 C-144.3953125 145.5196875 -144.3953125 145.5196875 -145.5 146.6875 C-147.3125 148.375 -147.3125 148.375 -149.3125 148.375 C-149.3125 149.035 -149.3125 149.695 -149.3125 150.375 C-149.9725 150.375 -150.6325 150.375 -151.3125 150.375 C-151.6425 151.365 -151.9725 152.355 -152.3125 153.375 C-152.9725 153.045 -153.6325 152.715 -154.3125 152.375 C-147.04326923 142.95192308 -147.04326923 142.95192308 -142.3125 141.375 C-141.8175 140.385 -141.8175 140.385 -141.3125 139.375 C-140.3125 137.375 -140.3125 137.375 -137.3125 136.375 C-137.02375 135.776875 -136.735 135.17875 -136.4375 134.5625 C-134.95241302 131.67483088 -132.85368663 130.37164664 -130.3125 128.375 C-128.95863064 126.72497172 -127.62571858 125.0575613 -126.3125 123.375 C-123.80063108 120.73092746 -121.28066151 118.34939078 -118.4375 116.0625 C-116.20931355 114.23664005 -114.37362596 112.33966476 -112.53271484 110.12646484 C-107.25195696 104.02922121 -101.46814667 98.42044391 -95.7504158 92.73775101 C-93.63005424 90.63026068 -91.51292707 88.51956766 -89.39657593 86.40805054 C-84.91303323 81.93587002 -80.42554469 77.46766193 -75.9375 73 C-70.71400856 67.80011035 -65.49214738 62.59860486 -60.27445602 57.39289474 C-58.18635224 55.31128294 -56.09526689 53.23269786 -54.00405884 51.15420532 C-52.73253979 49.88631641 -51.46115959 48.61828823 -50.18994141 47.35009766 C-49.31415939 46.48206512 -49.31415939 46.48206512 -48.42068481 45.59649658 C-45.50654854 42.75922369 -45.50654854 42.75922369 -43.3125 39.375 C-42.6525 39.375 -41.9925 39.375 -41.3125 39.375 C-41.250625 38.776875 -41.18875 38.17875 -41.125 37.5625 C-39.98967105 34.50584514 -38.10097225 33.90865974 -35.3125 32.375 C-34.9825 31.715 -34.6525 31.055 -34.3125 30.375 C-33.6525 30.375 -32.9925 30.375 -32.3125 30.375 C-31.8175 28.89 -31.8175 28.89 -31.3125 27.375 C-29.45267565 25.53253015 -27.58596802 23.78997765 -25.625 22.0625 C-24.52912645 21.0777363 -23.43406551 20.09206751 -22.33984375 19.10546875 C-21.81503418 18.63415527 -21.29022461 18.1628418 -20.74951172 17.67724609 C-17.22517606 14.48342918 -13.96120935 11.34806403 -11.3125 7.375 C-10.15486342 6.30024271 -8.96495819 5.25950597 -7.75 4.25 C-3.08231542 0.34894137 -3.08231542 0.34894137 0 0 Z " fill="#A79563" transform="translate(288.3125,344.625)"/>
<path d="M0 0 C0.66 0.33 1.32 0.66 2 1 C1.67 1.99 1.34 2.98 1 4 C0.01 4.33 -0.98 4.66 -2 5 C-3.67067133 6.99665598 -5.33752986 8.99651034 -7 11 C-7.66 11 -8.32 11 -9 11 C-9.19980469 11.85078125 -9.39960937 12.7015625 -9.60546875 13.578125 C-11.39247846 17.96305638 -13.94704623 20.50033876 -17.3125 23.75 C-17.88162109 24.32621094 -18.45074219 24.90242187 -19.03710938 25.49609375 C-22.14852325 28.56106861 -24.70883935 30.74405054 -29 32 C-29 32.99 -29 33.98 -29 35 C-30.88429289 37.15598164 -32.76510301 39.13663983 -34.8125 41.125 C-35.63331055 41.95064453 -35.63331055 41.95064453 -36.47070312 42.79296875 C-38.93983449 45.22917837 -40.6683372 46.88944573 -44 48 C-44.39827408 52.19018386 -44.39827408 52.19018386 -42.625 55.8125 C-39.34490536 58.20949224 -36.93417879 58.18472126 -32.90380859 58.30981445 C-31.93359961 58.34029782 -31.93359961 58.34029782 -30.94379044 58.37139702 C-28.72047331 58.43785369 -26.49705094 58.49514891 -24.2734375 58.55078125 C-23.48276257 58.57159571 -22.69208763 58.59241016 -21.87745285 58.61385536 C3.45771429 59.26237932 28.8048422 59.18745935 54.14652562 59.18511117 C59.70897604 59.18546167 65.27136339 59.19709609 70.833794 59.2110464 C76.3057711 59.22425871 81.77772068 59.22948136 87.24971354 59.22884732 C90.4731858 59.22859741 93.69656553 59.23214828 96.92002487 59.24202538 C148.23305346 59.38488974 191.60524664 48.3985867 234 19 C234.66 19.33 235.32 19.66 236 20 C224.57549703 29.49453839 211.47883816 36.86396335 198 43 C197.35160156 43.2985791 196.70320312 43.5971582 196.03515625 43.90478516 C161.30047978 59.68155034 124.92675166 62.35931592 87.26171875 62.23046875 C84.87644984 62.2292696 82.49118045 62.22882533 80.10591125 62.2290802 C75.1437375 62.2275322 70.18163759 62.21938127 65.21948242 62.20581055 C58.97862709 62.18892397 52.73785223 62.18508654 46.49697685 62.18562126 C24.08455935 62.18517092 1.67534372 62.14068251 -20.73046875 61.55078125 C-21.49862726 61.53148245 -22.26678577 61.51218365 -23.05822182 61.49230003 C-25.17598964 61.43713256 -27.2934136 61.37517736 -29.41088867 61.30981445 C-30.5740007 61.27435013 -31.73711273 61.2388858 -32.93547058 61.2023468 C-35.7195697 61.01851644 -38.27655283 60.57520744 -41 60 C-41.99 60 -42.98 60 -44 60 C-45.63170125 56.30147717 -47 53.06574554 -47 49 C-45.34055537 46.03018486 -43.41027994 43.40417797 -41 41 C-40.34 41 -39.68 41 -39 41 C-38.731875 40.360625 -38.46375 39.72125 -38.1875 39.0625 C-37 37 -37 37 -34 36 C-33.29848848 34.6846659 -32.63474075 33.34882408 -32 32 C-30.5 30.25 -30.5 30.25 -29 29 C-28.34 29 -27.68 29 -27 29 C-26.731875 28.360625 -26.46375 27.72125 -26.1875 27.0625 C-25 25 -25 25 -22 24 C-21.71125 23.4225 -21.4225 22.845 -21.125 22.25 C-19.60387378 19.20774755 -17.51286104 17.26157493 -15 15 C-14.34 15 -13.68 15 -13 15 C-12.773125 14.4225 -12.54625 13.845 -12.3125 13.25 C-10.66216522 10.42085466 -8.56741423 9.01725404 -6 7 C-5.278125 6.0925 -4.55625 5.185 -3.8125 4.25 C-3.214375 3.5075 -2.61625 2.765 -2 2 C-1.34 2 -0.68 2 0 2 C0 1.34 0 0.68 0 0 Z " fill="#A4905A" transform="translate(132,498)"/>
<path d="M0 0 C0.99 0.33 1.98 0.66 3 1 C3 1.66 3 2.32 3 3 C3.57814453 3.25434814 4.15628906 3.50869629 4.75195312 3.77075195 C8.98253635 6.084065 12.1215148 9.79467488 15.5 13.1875 C16.25925781 13.93064453 17.01851563 14.67378906 17.80078125 15.43945312 C22.03158613 19.66655327 25.51217101 23.52948774 28 29 C27.32795074 32.88295127 26.19482589 35.60388058 23 38 C22.34 38 21.68 38 21 38 C21 38.66 21 39.32 21 40 C19.390625 41.55078125 19.390625 41.55078125 17.25 43.3125 C14.07898453 45.99951837 11.57756697 48.73508184 9 52 C7.01739574 53.68732277 5.0167658 55.35366057 3 57 C1.32364768 58.6569244 -0.34194007 60.32477081 -2 62 C-2.88300781 62.85980469 -3.76601562 63.71960938 -4.67578125 64.60546875 C-5.54589844 65.45753906 -6.41601562 66.30960937 -7.3125 67.1875 C-8.19550781 68.04730469 -9.07851562 68.90710938 -9.98828125 69.79296875 C-12.2245496 71.74863355 -12.2245496 71.74863355 -12 74 C-12.69867188 74.40992188 -13.39734375 74.81984375 -14.1171875 75.2421875 C-17.68970599 77.42055244 -20.25482989 80.11167926 -23.125 83.125 C-28.59668192 88.86556064 -28.59668192 88.86556064 -32 90 C-40.02639391 87.37598661 -45.15606795 81.85417219 -51 76 C-52.2906643 74.70912134 -53.58144617 73.41836023 -54.87231445 72.12768555 C-65.58154297 61.41845703 -76.29077148 50.70922852 -87 40 C-84 40 -84 40 -82.47822571 41.16773987 C-81.94054062 41.715103 -81.40285553 42.26246613 -80.84887695 42.82641602 C-80.23426102 43.44448624 -79.61964508 44.06255646 -78.98640442 44.69935608 C-78.32702377 45.37735764 -77.66764313 46.05535919 -76.98828125 46.75390625 C-76.30122604 47.44757797 -75.61417084 48.14124969 -74.90629578 48.85594177 C-72.70118782 51.08450849 -70.50641774 53.3229207 -68.3125 55.5625 C-66.13482955 57.77542268 -63.95499252 59.9861441 -61.77226257 62.19407654 C-60.4142972 63.56878483 -59.05944389 64.94657713 -57.70832825 66.32801819 C-53.8965254 70.19883 -49.97353531 73.8480939 -45.82804871 77.36045837 C-43.32418633 79.60612425 -41.12891646 82.07403444 -38.93359375 84.6171875 C-35.98710567 86.72437292 -33.58947733 86.86577062 -30 87 C-27.14897562 85.30372258 -27.14897562 85.30372258 -24.69482422 82.60302734 C-24.21415497 82.12352631 -23.73348572 81.64402527 -23.23825073 81.1499939 C-21.65735364 79.56353383 -20.10667576 77.95064732 -18.5546875 76.3359375 C-17.45741961 75.22373329 -16.35836046 74.1132937 -15.25759888 73.00454712 C-12.36457741 70.08100691 -9.4963496 67.13427599 -6.63269043 64.18200684 C-3.72658744 61.19436585 -0.79802362 58.2289339 2.12890625 55.26171875 C7.28666043 50.02745133 12.42420144 44.7740505 17.54763794 39.50619507 C19.26301938 37.75315844 21.02185915 36.04207984 22.81124878 34.36465454 C25.32875585 32.16891037 25.32875585 32.16891037 25.06640625 28.9921875 C23.84947821 25.57765682 22.43614637 23.73936413 19.9375 21.125 C18.71740234 19.83722656 18.71740234 19.83722656 17.47265625 18.5234375 C16.65667969 17.69070313 15.84070313 16.85796875 15 16 C14.29746094 15.27039063 13.59492188 14.54078125 12.87109375 13.7890625 C9.70790532 10.55778195 6.47750118 7.51593471 3 4.625 C2.01 3.75875 1.02 2.8925 0 2 C0 1.34 0 0.68 0 0 Z " fill="#B2A275" transform="translate(168,325)"/>
<path d="M0 0 C3.9112392 10.5681165 -6.64658935 29.42490287 -11 39 C-21.08589797 59.76681966 -37.9118651 79.38817832 -57.3125 92 C-57.88718018 92.37406982 -58.46186035 92.74813965 -59.05395508 93.13354492 C-63.34531305 95.81883154 -67.52837034 98.17243928 -72.6875 97.8125 C-75.32699608 96.88510948 -76.3117592 96.21828708 -78 94 C-78.36076355 91.39936829 -78.36076355 91.39936829 -78.34057617 88.2434082 C-78.34034958 87.06241043 -78.34012299 85.88141266 -78.33988953 84.66462708 C-78.32440567 83.38955795 -78.30892181 82.11448883 -78.29296875 80.80078125 C-78.28872391 79.49545944 -78.28447906 78.19013763 -78.28010559 76.84526062 C-78.26866089 73.37794721 -78.23919754 69.91101187 -78.20599365 66.44384766 C-78.17528433 62.90467442 -78.16159845 59.36543999 -78.14648438 55.82617188 C-78.11432705 48.88395945 -78.06313554 41.94199789 -78 35 C-77.67 35 -77.34 35 -77 35 C-76.97494385 36.21880859 -76.9498877 37.43761719 -76.92407227 38.69335938 C-76.82861898 43.2932062 -76.72875779 47.89294928 -76.62768555 52.49267578 C-76.58484997 54.46888777 -76.54314888 56.44512474 -76.50268555 58.42138672 C-76.36856159 64.94875247 -76.20452989 71.47445049 -76 78 C-75.9754071 78.82951172 -75.95081421 79.65902344 -75.92547607 80.51367188 C-75.85160609 82.77065046 -75.75653332 85.02549313 -75.65234375 87.28125 C-75.59941162 88.54001953 -75.54647949 89.79878906 -75.49194336 91.09570312 C-75.32960205 92.05412109 -75.16726074 93.01253906 -75 94 C-74.01 94.66 -73.02 95.32 -72 96 C-53.91696321 90.92405985 -37.81814937 74.92725221 -26.875 60.1875 C-26.35510498 59.49188965 -25.83520996 58.7962793 -25.29956055 58.07958984 C-21.56327123 52.98652764 -18.46515144 47.83127193 -16 42 C-15.22664887 40.45329774 -14.41249713 38.92695757 -13.58203125 37.41015625 C-7.27681081 25.48173702 -3.66759229 12.93127609 0 0 Z " fill="#B9AB85" transform="translate(372,362)"/>
<path d="M0 0 C0.33 0 0.66 0 1 0 C1.14248169 1.03217651 1.14248169 1.03217651 1.2878418 2.08520508 C6.9396059 42.39888627 19.6394777 77.45350078 46 109 C46.46486816 109.56638184 46.92973633 110.13276367 47.40869141 110.71630859 C55.36394876 120.40180031 64.03207602 129.25259875 73 138 C72.67 138.66 72.34 139.32 72 140 C49.8 117.8 49.8 117.8 47.4375 114.5625 C44.14575185 110.13036735 40.6609783 105.87146668 37.1484375 101.61328125 C35.70076097 99.85238016 34.26868882 98.07854792 32.8515625 96.29296875 C31.05117356 93.98057066 31.05117356 93.98057066 29 92 C29 91.34 29 90.68 29 90 C28.31698969 88.69356113 27.57841112 87.41587921 26.8125 86.15625 C26.36132812 85.40472656 25.91015625 84.65320313 25.4453125 83.87890625 C24.96835937 83.09386719 24.49140625 82.30882812 24 81.5 C23.05849908 79.95034038 22.1208006 78.39836214 21.1875 76.84375 C20.76855469 76.15474609 20.34960938 75.46574219 19.91796875 74.75585938 C19 73 19 73 19 71 C18.01 71 17.02 71 16 71 C13.71233762 68.53636359 12.43174012 66.34598589 12 63 C12.33 62.01 12.66 61.02 13 60 C12.56093985 58.10330477 12.56093985 58.10330477 11.70703125 56.11328125 C11.40821045 55.34765869 11.10938965 54.58203613 10.80151367 53.79321289 C10.47513916 52.97457764 10.14876465 52.15594238 9.8125 51.3125 C3.43141753 34.66654238 -0.52034378 17.92295258 0 0 Z M14 63 C15 65 15 65 15 65 Z M16 67 C17 69 17 69 17 69 Z " fill="#A6925C" transform="translate(8,224)"/>
<path d="M0 0 C24.42151588 10.27961617 45.14933815 41.99835713 55.01220703 65.40185547 C65.77073515 92.18958403 68.17700065 118.54418305 64 147 C63.67 147 63.34 147 63 147 C63.00523682 145.8354126 63.01047363 144.6708252 63.01586914 143.47094727 C63.03408427 139.11548645 63.04549192 134.76002895 63.05493164 130.40454102 C63.05993432 128.52595451 63.06673856 126.64737185 63.07543945 124.76879883 C63.08768427 122.05549161 63.09326911 119.34223624 63.09765625 116.62890625 C63.10281754 115.80040665 63.10797882 114.97190704 63.11329651 114.11830139 C63.37845185 104.80225735 63.37845185 104.80225735 61 96 C60.9175 94.783125 60.835 93.56625 60.75 92.3125 C60.23267205 86.94631851 58.5131879 82.10572021 56.72753906 77.05395508 C55 72.16325416 55 72.16325416 55 70 C54.01 69.505 54.01 69.505 53 69 C52.649375 67.824375 52.29875 66.64875 51.9375 65.4375 C44.3175006 41.59670981 24.59268081 20.75074116 5.171875 5.83203125 C3.05691227 4.04800693 1.55514957 2.27718329 0 0 Z " fill="#A69566" transform="translate(311,208)"/>
<path d="M0 0 C0.80824219 0.10183594 1.61648438 0.20367187 2.44921875 0.30859375 C3.06410156 0.39238281 3.67898438 0.47617188 4.3125 0.5625 C4.3125 1.5525 4.3125 2.5425 4.3125 3.5625 C6.6924816 5.71537577 6.6924816 5.71537577 9.6875 7.75 C10.68523437 8.46542969 11.68296875 9.18085938 12.7109375 9.91796875 C15.08129914 11.74060907 15.08129914 11.74060907 17.3125 11.5625 C19.01502713 13.19251746 20.67562013 14.86656963 22.3125 16.5625 C24.0726867 18.19902635 25.84380919 19.8238597 27.625 21.4375 C28.58921875 22.31148437 29.5534375 23.18546875 30.546875 24.0859375 C32.80196514 26.10532613 35.07752721 28.09190342 37.375 30.0625 C42.26953722 34.30578903 46.77654 38.942885 51.3125 43.5625 C50.8175 44.5525 50.8175 44.5525 50.3125 45.5625 C48.93578125 44.16837891 48.93578125 44.16837891 47.53125 42.74609375 C38.2286064 33.32447998 38.2286064 33.32447998 28.3125 24.5625 C27.61769531 23.97855469 26.92289062 23.39460938 26.20703125 22.79296875 C12.04143726 9.87209081 12.04143726 9.87209081 -4.41015625 2.49609375 C-9.16039693 4.04176205 -11.74625716 7.04690102 -15.125 10.625 C-15.75470703 11.26888672 -16.38441406 11.91277344 -17.03320312 12.57617188 C-20.1083395 15.74612233 -23.07036989 18.98441158 -25.94140625 22.33984375 C-31.19532911 28.40274502 -37.00999189 33.94099423 -42.71728516 39.57177734 C-48.60002183 45.38275029 -54.36503658 51.22393835 -59.6875 57.5625 C-60.40740112 58.40711792 -60.40740112 58.40711792 -61.1418457 59.26879883 C-63.14124348 61.63335716 -64.96746228 63.98244341 -66.6875 66.5625 C-67.07363383 63.93678995 -67.07243778 62.1781121 -65.64453125 59.89453125 C-64.3125 58.25 -64.3125 58.25 -61.6875 55.5625 C-61.0275 55.5625 -60.3675 55.5625 -59.6875 55.5625 C-59.44362549 54.99265381 -59.19975098 54.42280762 -58.94848633 53.83569336 C-57.4586548 51.14995834 -55.69844824 49.34774827 -53.51171875 47.19140625 C-52.26938477 45.95874023 -52.26938477 45.95874023 -51.00195312 44.70117188 C-50.13505859 43.85103516 -49.26816406 43.00089844 -48.375 42.125 C-47.51970703 41.27873047 -46.66441406 40.43246094 -45.78320312 39.56054688 C-43.42139882 37.2243547 -41.05540102 34.89251028 -38.6875 32.5625 C-34.71296863 28.64557054 -30.91133497 24.59689774 -27.125 20.5 C-22.47686265 15.50286629 -17.79601769 10.54323464 -13 5.6875 C-12.50749756 5.18210693 -12.01499512 4.67671387 -11.50756836 4.15600586 C-7.67975355 0.31746701 -5.33727047 -0.69616571 0 0 Z " fill="#AD9C6D" transform="translate(359.6875,126.4375)"/>
<path d="M0 0 C0.66 0.33 1.32 0.66 2 1 C1.67 1.99 1.34 2.98 1 4 C0.01 4.33 -0.98 4.66 -2 5 C-3.67067133 6.99665598 -5.33752986 8.99651034 -7 11 C-7.66 11 -8.32 11 -9 11 C-9.19980469 11.85078125 -9.39960937 12.7015625 -9.60546875 13.578125 C-11.39247846 17.96305638 -13.94704623 20.50033876 -17.3125 23.75 C-17.88162109 24.32621094 -18.45074219 24.90242187 -19.03710938 25.49609375 C-22.14852325 28.56106861 -24.70883935 30.74405054 -29 32 C-29 32.99 -29 33.98 -29 35 C-30.88303024 37.18081177 -32.76097777 39.17856992 -34.8125 41.1875 C-35.35970703 41.74630859 -35.90691406 42.30511719 -36.47070312 42.88085938 C-40.6200206 47 -40.6200206 47 -44 47 C-43.75 45.125 -43.75 45.125 -43 43 C-41.67532254 42.3162955 -40.34136367 41.65035814 -39 41 C-38.31731862 39.67479497 -37.6492959 38.34187818 -37 37 C-35.515 36.505 -35.515 36.505 -34 36 C-33.29848848 34.6846659 -32.63474075 33.34882408 -32 32 C-30.5 30.25 -30.5 30.25 -29 29 C-28.34 29 -27.68 29 -27 29 C-26.731875 28.360625 -26.46375 27.72125 -26.1875 27.0625 C-25 25 -25 25 -22 24 C-21.71125 23.4225 -21.4225 22.845 -21.125 22.25 C-19.60387378 19.20774755 -17.51286104 17.26157493 -15 15 C-14.34 15 -13.68 15 -13 15 C-12.773125 14.4225 -12.54625 13.845 -12.3125 13.25 C-10.66216522 10.42085466 -8.56741423 9.01725404 -6 7 C-5.278125 6.0925 -4.55625 5.185 -3.8125 4.25 C-3.214375 3.5075 -2.61625 2.765 -2 2 C-1.34 2 -0.68 2 0 2 C0 1.34 0 0.68 0 0 Z " fill="#F4F3EC" transform="translate(132,498)"/>
<path d="M0 0 C2.89509184 1.30943104 4.94592537 2.70266501 7.17285156 4.96166992 C7.76737122 5.55956833 8.36189087 6.15746674 8.97442627 6.77348328 C9.60677185 7.41928848 10.23911743 8.06509369 10.890625 8.73046875 C11.55406921 9.39911453 12.21751343 10.06776031 12.90106201 10.75666809 C15.02218406 12.89558082 17.13652168 15.0410362 19.25 17.1875 C21.34999707 19.31528759 23.45149132 21.44153829 25.55609131 23.56477356 C26.86352544 24.88427409 28.16828143 26.20643605 29.4697876 27.53178406 C33.22268819 31.32505482 37.09344155 34.89796146 41.1630249 38.35029602 C43.66878858 40.60060868 45.86810303 43.07058169 48.06640625 45.6171875 C51.143016 47.81742962 53.22755114 48.09906641 57 48 C59.73596436 46.23771377 61.77874338 43.97901861 63.9375 41.5625 C64.82018555 40.62567383 64.82018555 40.62567383 65.72070312 39.66992188 C67.16592087 38.13070623 68.58557839 36.567562 70 35 C70.66 35.33 71.32 35.66 72 36 C69.73737364 38.32065386 67.46356994 40.63003599 65.1875 42.9375 C64.54490234 43.59685547 63.90230469 44.25621094 63.24023438 44.93554688 C62.30727539 45.87817383 62.30727539 45.87817383 61.35546875 46.83984375 C60.78465576 47.42113037 60.21384277 48.00241699 59.62573242 48.60131836 C58 50 58 50 55 51 C47.65941656 48.60019387 42.93447276 43.94364138 37.56744385 38.56796265 C35.75703726 36.75695684 33.94253781 34.95010541 32.12768555 33.14355469 C28.16340242 29.19703395 24.20214481 25.2474913 20.24194336 21.296875 C18.53091099 19.59091211 16.81898819 17.88584184 15.10620117 16.18164062 C12.63488184 13.7223719 10.16673638 11.2599574 7.69921875 8.796875 C6.92744797 8.0302655 6.15567719 7.26365601 5.36051941 6.47381592 C4.6559108 5.76928284 3.95130219 5.06474976 3.2253418 4.33886719 C2.60088669 3.71663269 1.97643158 3.09439819 1.33305359 2.45330811 C0 1 0 1 0 0 Z " fill="#A7935B" transform="translate(81,364)"/>
<path d="M0 0 C3.9112392 10.5681165 -6.64658935 29.42490287 -11 39 C-17.11643803 51.59371906 -25.57882253 62.70032045 -35 73 C-35 68.57154245 -32.17443436 66.29481259 -29.4375 63.0625 C-23.64882759 56.04541001 -17.9121849 48.73655471 -15 40 C-13.94318063 37.99699249 -12.87959 35.9975548 -11.8125 34 C-6.26464681 23.26877217 -3.2822695 11.57269669 0 0 Z " fill="#A99869" transform="translate(372,362)"/>
<path d="M0 0 C0.33 0.66 0.66 1.32 1 2 C0.09808111 4.0155422 -0.89653955 5.990125 -1.9375 7.9375 C-4.35643917 12.2396809 -4.35643917 12.2396809 -5 17 C-5.66 17 -6.32 17 -7 17 C-7.63305743 19.39394049 -8.25638536 21.78981984 -8.875 24.1875 C-9.04902344 24.84169922 -9.22304687 25.49589844 -9.40234375 26.16992188 C-12.356064 37.71131026 -13.28748876 48.91957301 -13.125 60.8125 C-13.11597656 62.08931641 -13.10695313 63.36613281 -13.09765625 64.68164062 C-13.07438789 67.78796716 -13.04170155 70.89387572 -13 74 C-15.45777197 70.24105464 -15.25710815 66.50046454 -15.1953125 62.171875 C-15.1924826 61.42286926 -15.18965271 60.67386353 -15.18673706 59.90216064 C-15.1755726 57.51794224 -15.15047531 55.13410421 -15.125 52.75 C-15.11496535 51.13021377 -15.10584035 49.51042164 -15.09765625 47.890625 C-15.07564555 43.92693754 -15.04114175 39.96353319 -15 36 C-14.34 36 -13.68 36 -13 36 C-12.95875 34.845 -12.9175 33.69 -12.875 32.5 C-11.81988016 22.95870203 -6.84760503 6.84760503 0 0 Z " fill="#9C8A57" transform="translate(109,151)"/>
<path d="M0 0 C0.495 1.485 0.495 1.485 1 3 C-0.62339805 4.70884005 -2.29319053 6.37446717 -4 8 C-4.66 8 -5.32 8 -6 8 C-6.33 8.99 -6.66 9.98 -7 11 C-7.66 11 -8.32 11 -9 11 C-9.2371875 11.56203125 -9.474375 12.1240625 -9.71875 12.703125 C-11.28947697 15.51894042 -13.21471464 17.47955416 -15.5 19.75 C-16.2940625 20.54921875 -17.088125 21.3484375 -17.90625 22.171875 C-20 24 -20 24 -22 24 C-22.33 24.99 -22.66 25.98 -23 27 C-23.66 27 -24.32 27 -25 27 C-25.226875 27.556875 -25.45375 28.11375 -25.6875 28.6875 C-27.3703574 31.65253447 -29.53621374 33.65353689 -32 36 C-32.721875 36.763125 -33.44375 37.52625 -34.1875 38.3125 C-36 40 -36 40 -38 40 C-38 40.66 -38 41.32 -38 42 C-38.66 42 -39.32 42 -40 42 C-40.33 42.99 -40.66 43.98 -41 45 C-41.66 44.67 -42.32 44.34 -43 44 C-35.73076923 34.57692308 -35.73076923 34.57692308 -31 33 C-30.67 32.34 -30.34 31.68 -30 31 C-29 29 -29 29 -26 28 C-25.566875 27.1028125 -25.566875 27.1028125 -25.125 26.1875 C-23.63991302 23.29983088 -21.54118663 21.99664664 -19 20 C-17.64613064 18.34997172 -16.31321858 16.6825613 -15 15 C-12.42801937 12.29265197 -9.8321726 9.86299804 -6.9375 7.5 C-4.2114227 5.17993421 -2.1276709 2.86417237 0 0 Z " fill="#B1A174" transform="translate(177,453)"/>
<path d="M0 0 C0.495 1.485 0.495 1.485 1 3 C0.15816162 3.83660156 -0.68367676 4.67320312 -1.55102539 5.53515625 C-4.70516442 8.67105076 -7.85587441 11.810372 -11.00561523 14.95068359 C-12.36342127 16.30349355 -13.72212751 17.65540066 -15.08178711 19.00634766 C-25.38250711 29.18409558 -25.38250711 29.18409558 -35 40 C-35.47550293 40.55856689 -35.95100586 41.11713379 -36.44091797 41.69262695 C-38.4461935 44.06090804 -40.27629279 46.41443919 -42 49 C-42.38613383 46.37428995 -42.38493778 44.6156121 -40.95703125 42.33203125 C-39.625 40.6875 -39.625 40.6875 -37 38 C-36.34 38 -35.68 38 -35 38 C-34.75612549 37.43015381 -34.51225098 36.86030762 -34.26098633 36.27319336 C-32.7711548 33.58745834 -31.01094824 31.78524827 -28.82421875 29.62890625 C-27.58188477 28.39624023 -27.58188477 28.39624023 -26.31445312 27.13867188 C-25.44755859 26.28853516 -24.58066406 25.43839844 -23.6875 24.5625 C-22.83220703 23.71623047 -21.97691406 22.86996094 -21.09570312 21.99804688 C-18.73389887 19.66185475 -16.36784051 17.33007161 -14 15 C-10.60900822 11.65623652 -7.36034461 8.23919173 -4.1875 4.6875 C-3.39730469 3.80449219 -2.60710937 2.92148438 -1.79296875 2.01171875 C-1.20128906 1.34785156 -0.60960937 0.68398437 0 0 Z " fill="#AF9F72" transform="translate(335,144)"/>
<path d="M0 0 C0.33 0 0.66 0 1 0 C1.04934926 5.65998046 1.08569529 11.31983636 1.10986328 16.97998047 C1.11993582 18.90643494 1.13359443 20.83287408 1.15087891 22.75927734 C1.17507241 25.52445252 1.18647036 28.289426 1.1953125 31.0546875 C1.20563507 31.9193161 1.21595764 32.7839447 1.22659302 33.67477417 C1.22699106 35.78453521 1.12265243 37.89380718 1 40 C0.34 40.66 -0.32 41.32 -1 42 C-3.125 41.625 -3.125 41.625 -5 41 C-4.67 39.35 -4.34 37.7 -4 36 C-3.34 36 -2.68 36 -2 36 C-1.97494385 35.22922119 -1.9498877 34.45844238 -1.92407227 33.66430664 C-1.80714506 30.13024164 -1.68486177 26.59638084 -1.5625 23.0625 C-1.52318359 21.85013672 -1.48386719 20.63777344 -1.44335938 19.38867188 C-1.2138853 12.87513852 -0.82995185 6.46525519 0 0 Z " fill="#FAF9F7" transform="translate(9,187)"/>
<path d="M0 0 C0.66 0.33 1.32 0.66 2 1 C-8 11 -8 11 -10.71875 13.68359375 C-13.0206612 15.92402633 -13.0206612 15.92402633 -14.8125 18.375 C-17.30397752 21.36477302 -20.08148588 23.71171437 -23.04296875 26.22265625 C-24.83026665 27.84585095 -26.27550258 29.47139188 -27.75 31.375 C-30.09018379 34.10521442 -30.67208994 34.39873894 -34 35 C-29.97251947 30.16701194 -25.75620587 25.61889996 -21.2890625 21.19140625 C-20.36956314 20.27402931 -20.36956314 20.27402931 -19.43148804 19.33811951 C-17.49835436 17.41052441 -15.56175013 15.48646072 -13.625 13.5625 C-12.30315301 12.24567596 -10.98153628 10.92862074 -9.66015625 9.61132812 C-6.44275701 6.40487627 -3.22224319 3.20158371 0 0 Z " fill="#AF9D6A" transform="translate(186,364)"/>
<path d="M0 0 C4.10284014 1.37732999 6.66842384 3.23643659 9.8125 6.1875 C10.68519531 6.99703125 11.55789063 7.8065625 12.45703125 8.640625 C13.29621094 9.41921875 14.13539063 10.1978125 15 11 C16.32878084 12.15110958 17.66175203 13.29741045 19 14.4375 C23.91224949 18.70552005 28.44322882 23.35919001 33 28 C32.67 28.66 32.34 29.32 32 30 C30.62328125 28.60587891 30.62328125 28.60587891 29.21875 27.18359375 C20.50354973 18.38994241 11.67626396 10.2233505 1.90625 2.6015625 C1.2771875 2.07304687 0.648125 1.54453125 0 1 C0 0.67 0 0.34 0 0 Z " fill="#A08C5D" transform="translate(378,142)"/>
<path d="M0 0 C0.33 0.99 0.66 1.98 1 3 C-0.62339805 4.70884005 -2.29319053 6.37446717 -4 8 C-4.66 8 -5.32 8 -6 8 C-6.33 8.99 -6.66 9.98 -7 11 C-7.66 11 -8.32 11 -9 11 C-9.25523437 11.59296875 -9.51046875 12.1859375 -9.7734375 12.796875 C-11.11816498 15.21224538 -12.49214367 16.51211706 -14.625 18.25 C-15.25664062 18.77078125 -15.88828125 19.2915625 -16.5390625 19.828125 C-17.02117187 20.21484375 -17.50328125 20.6015625 -18 21 C-17.30465107 17.07624535 -15.74660053 15.7894195 -12.61328125 13.3515625 C-10.05494608 11.20825991 -8.09913469 8.58355039 -6 6 C-4.35216394 4.31471312 -2.68997323 2.64302953 -1 1 C-0.67 0.67 -0.34 0.34 0 0 Z " fill="#B7A87E" transform="translate(177,453)"/>
<path d="M0 0 C1.32 0 2.64 0 4 0 C1.66918786 5.72108435 -3.22850416 9.31913178 -8 13 C-8 9.3364079 -7.29612783 8.77118876 -5 6 C-4.61328125 5.47535156 -4.2265625 4.95070312 -3.828125 4.41015625 C-2.5625 2.75 -2.5625 2.75 0 0 Z " fill="#CBC0A1" transform="translate(204,203)"/>
<path d="M0 0 C0.99 0.33 1.98 0.66 3 1 C0.74141867 3.34546698 -1.53376648 5.67412027 -3.8125 8 C-4.45509766 8.66773438 -5.09769531 9.33546875 -5.75976562 10.0234375 C-6.69272461 10.97089844 -6.69272461 10.97089844 -7.64453125 11.9375 C-8.21534424 12.52402344 -8.78615723 13.11054688 -9.37426758 13.71484375 C-11 15 -11 15 -14 15 C-14 14.34 -14 13.68 -14 13 C-12.34467377 11.98133771 -10.67739862 10.98189187 -9 10 C-8.67 9.34 -8.34 8.68 -8 8 C-7.34 8 -6.68 8 -6 8 C-5.67 7.01 -5.34 6.02 -5 5 C-3.37347684 3.29413425 -1.70993434 1.6222454 0 0 Z " fill="#BEAE84" transform="translate(262,367)"/>
<path d="M0 0 C-1.26138195 1.34227818 -2.53444559 2.67358677 -3.8125 4 C-4.52019531 4.7425 -5.22789063 5.485 -5.95703125 6.25 C-8 8 -8 8 -11 8 C-10.60935585 5.53471865 -10.26760629 4.26692012 -8.4765625 2.48046875 C-7.86554688 2.05378906 -7.25453125 1.62710938 -6.625 1.1875 C-6.01914063 0.74792969 -5.41328125 0.30835938 -4.7890625 -0.14453125 C-3 -1 -3 -1 0 0 Z " fill="#E0D9C2" transform="translate(99,537)"/>
<path d="M0 0 C0.66 0.33 1.32 0.66 2 1 C1.34 1.66 0.68 2.32 0 3 C0 3.99 0 4.98 0 6 C-2.93441215 8.70868814 -6.41866992 10.29072883 -10 12 C-9.1875 10.0625 -9.1875 10.0625 -8 8 C-7.01 7.67 -6.02 7.34 -5 7 C-4.29848848 5.6846659 -3.63474075 4.34882408 -3 3 C-1.375 1.25 -1.375 1.25 0 0 Z " fill="#C0B38C" transform="translate(103,527)"/>
<path d="M0 0 C0.66 0.33 1.32 0.66 2 1 C1.67 1.99 1.34 2.98 1 4 C0.01 4.33 -0.98 4.66 -2 5 C-3.67067133 6.99665598 -5.33752986 8.99651034 -7 11 C-7.66 11 -8.32 11 -9 11 C-9.33 11.99 -9.66 12.98 -10 14 C-10.99 14.33 -11.98 14.66 -13 15 C-11.49091551 11.15869402 -9.1970513 9.51196888 -6 7 C-5.278125 6.0925 -4.55625 5.185 -3.8125 4.25 C-3.214375 3.5075 -2.61625 2.765 -2 2 C-1.34 2 -0.68 2 0 2 C0 1.34 0 0.68 0 0 Z " fill="#B4A475" transform="translate(132,498)"/>
<path d="M0 0 C1 2 1 2 0.875 3.8125 C0 6 0 6 -2.25 8.1875 C-5.7147901 11.73103533 -7.7561418 15.61731526 -10 20 C-11 17 -11 17 -10.21142578 15.20654297 C-9.7936084 14.55830566 -9.37579102 13.91006836 -8.9453125 13.2421875 C-8.49542969 12.53449219 -8.04554687 11.82679687 -7.58203125 11.09765625 C-7.10121094 10.36417969 -6.62039062 9.63070312 -6.125 8.875 C-5.65191406 8.13378906 -5.17882813 7.39257812 -4.69140625 6.62890625 C-1.22169962 1.22169962 -1.22169962 1.22169962 0 0 Z " fill="#A6915A" transform="translate(40,100)"/>
<path d="M0 0 C0.66 0.33 1.32 0.66 2 1 C0.71937515 2.7074998 -0.61767557 4.37373596 -2 6 C-2.66 6 -3.32 6 -4 6 C-4.20625 6.5775 -4.4125 7.155 -4.625 7.75 C-6.49750888 10.81410544 -8.96958519 12.15539968 -12 14 C-11.1875 12.0625 -11.1875 12.0625 -10 10 C-9.01 9.67 -8.02 9.34 -7 9 C-6.566875 8.13375 -6.566875 8.13375 -6.125 7.25 C-4.61984999 4.23969997 -2.42622037 2.29852456 0 0 Z " fill="#B3A272" transform="translate(117,513)"/>
<path d="M0 0 C0.33 0.99 0.66 1.98 1 3 C-2.63 6.63 -6.26 10.26 -10 14 C-10.99 13.67 -11.98 13.34 -13 13 C-12.48050781 12.56429687 -11.96101563 12.12859375 -11.42578125 11.6796875 C-7.16777334 8.04345894 -3.44527348 4.41425664 0 0 Z " fill="#BCAE85" transform="translate(335,144)"/>
<path d="M0 0 C0 3 0 3 -1.53125 4.60546875 C-2.1809375 5.12753906 -2.830625 5.64960938 -3.5 6.1875 C-4.1496875 6.71730469 -4.799375 7.24710938 -5.46875 7.79296875 C-5.9740625 8.19128906 -6.479375 8.58960938 -7 9 C-7.66 8.01 -8.32 7.02 -9 6 C-6.77752974 3.4441592 -5.25769597 2.73560877 -2 2 C-1.34 1.34 -0.68 0.68 0 0 Z " fill="#CEC4A5" transform="translate(217,193)"/>
<path d="M0 0 C0.33 0 0.66 0 1 0 C0.67 3.3 0.34 6.6 0 10 C-1.32 9.67 -2.64 9.34 -4 9 C-3.67 7.35 -3.34 5.7 -3 4 C-2.34 4 -1.68 4 -1 4 C-0.67 2.68 -0.34 1.36 0 0 Z " fill="#D6C89E" transform="translate(8,219)"/>
<path d="M0 0 C0.99 0 1.98 0 3 0 C2.67 3.3 2.34 6.6 2 10 C0 8 0 8 -0.1953125 6.0546875 C-0.13020833 4.03645833 -0.06510417 2.01822917 0 0 Z " fill="#C4B894" transform="translate(94,187)"/>
<path d="M0 0 C3.92300495 2.35380297 4.83857315 4.64464931 6 9 C5.01 9.495 5.01 9.495 4 10 C1.16625119 6.79663178 0.4794463 4.21912747 0 0 Z " fill="#CFC6AB" transform="translate(417,179)"/>
<path d="M0 0 C2.25245881 2.68841859 3.88213958 4.64641875 5 8 C2.00470711 7.00156904 0.84159673 6.48615558 -1 4 C-0.6875 1.8125 -0.6875 1.8125 0 0 Z " fill="#F2EBD6" transform="translate(357,263)"/>
<path d="M0 0 C0 3 0 3 -2.5 5.6875 C-3.325 6.450625 -4.15 7.21375 -5 8 C-5.3125 5.6875 -5.3125 5.6875 -5 3 C-2.5 1.1875 -2.5 1.1875 0 0 Z " fill="#B8AB86" transform="translate(118,138)"/>
<path d="M0 0 C0.99 0.33 1.98 0.66 3 1 C1.02 2.98 -0.96 4.96 -3 7 C-3.66 6.67 -4.32 6.34 -5 6 C-3.35 4.02 -1.7 2.04 0 0 Z " fill="#AF9C6C" transform="translate(262,367)"/>
<path d="M0 0 C1 2 1 2 0.875 3.9375 C-0.3582873 6.84453436 -2.25745971 7.59356908 -5 9 C-3.7508258 5.54074837 -2.32472205 2.85306797 0 0 Z " fill="#AE9E72" transform="translate(40,100)"/>
<path d="M0 0 C0.99 0.33 1.98 0.66 3 1 C3.33 1.99 3.66 2.98 4 4 C2.68 4 1.36 4 0 4 C0 2.68 0 1.36 0 0 Z " fill="#E3D6AC" transform="translate(28,303)"/>
<path d="M0 0 C0.66 0.66 1.32 1.32 2 2 C1.625 4.625 1.625 4.625 1 7 C0.31292445 4.50935112 0 2.62113708 0 0 Z " fill="#E5D9B4" transform="translate(4,200)"/>
<path d="M0 0 C0.99 0.99 1.98 1.98 3 3 C2.01 3.66 1.02 4.32 0 5 C0 3.35 0 1.7 0 0 Z " fill="#E7DBB6" transform="translate(76,362)"/>
<path d="M0 0 C2 3 2 3 2 5 C1.01 4.67 0.02 4.34 -1 4 C-0.67 2.68 -0.34 1.36 0 0 Z " fill="#E5D9B0" transform="translate(13,265)"/>
<path d="M0 0 C1.2065625 0.0309375 1.2065625 0.0309375 2.4375 0.0625 C1.7775 0.7225 1.1175 1.3825 0.4375 2.0625 C-1.6875 1.6875 -1.6875 1.6875 -3.5625 1.0625 C-2.5625 0.0625 -2.5625 0.0625 0 0 Z " fill="#E1D3A9" transform="translate(282.5625,556.9375)"/>
<path d="M0 0 C0.33 0.66 0.66 1.32 1 2 C1.99 2.33 2.98 2.66 4 3 C3.01 3.495 3.01 3.495 2 4 C1.34 3.67 0.68 3.34 0 3 C0 2.01 0 1.02 0 0 Z " fill="#EADEBD" transform="translate(124,408)"/>
<path d="M0 0 C0.99 0.33 1.98 0.66 3 1 C3 1.66 3 2.32 3 3 C2.01 3 1.02 3 0 3 C0 2.01 0 1.02 0 0 Z " fill="#EBDFBD" transform="translate(108,394)"/>
<path d="M0 0 C0.99 0.33 1.98 0.66 3 1 C2.67 1.99 2.34 2.98 2 4 C1.34 2.68 0.68 1.36 0 0 Z " fill="#EBDEBB" transform="translate(100,386)"/>
<path d="M0 0 C0.33 0 0.66 0 1 0 C1 2.31 1 4.62 1 7 C0.67 7 0.34 7 0 7 C0 4.69 0 2.38 0 0 Z " fill="#F2EDDA" transform="translate(372,306)"/>
<path d="M0 0 C0.66 0 1.32 0 2 0 C1.67 1.32 1.34 2.64 1 4 C0.67 2.68 0.34 1.36 0 0 Z " fill="#F8F3E5" transform="translate(340,423)"/>
<path d="M0 0 C0.99 0.99 1.98 1.98 3 3 C2.01 3 1.02 3 0 3 C0 2.01 0 1.02 0 0 Z " fill="#E9DDBA" transform="translate(128,412)"/>
<path d="M0 0 C0.99 0.33 1.98 0.66 3 1 C2.01 1.66 1.02 2.32 0 3 C0 2.01 0 1.02 0 0 Z " fill="#E5D9B3" transform="translate(60,71)"/>
<path d="M0 0 C0.66 1.32 1.32 2.64 2 4 C1.34 3.67 0.68 3.34 0 3 C0 2.01 0 1.02 0 0 Z " fill="#EADEBD" transform="translate(92,377)"/>
<path d="M0 0 C0.66 0.66 1.32 1.32 2 2 C1.34 2.66 0.68 3.32 0 4 C0 2.68 0 1.36 0 0 Z " fill="#E8DCB7" transform="translate(84,370)"/>
<path d="M0 0 C0.33 0 0.66 0 1 0 C1 1.65 1 3.3 1 5 C0.67 5 0.34 5 0 5 C0 3.35 0 1.7 0 0 Z " fill="#F0EAD7" transform="translate(373,329)"/>
<path d="M0 0 C0.33 0.66 0.66 1.32 1 2 C0.01 2.33 -0.98 2.66 -2 3 C-2 2.34 -2 1.68 -2 1 C-1.34 0.67 -0.68 0.34 0 0 Z " fill="#F2EBD5" transform="translate(350,251)"/>
<path d="M0 0 C0.66 0 1.32 0 2 0 C1.67 1.32 1.34 2.64 1 4 C0.67 2.68 0.34 1.36 0 0 Z " fill="#E2D7AE" transform="translate(4,218)"/>
<path d="M0 0 C0.33 0.99 0.66 1.98 1 3 C0.34 3 -0.32 3 -1 3 C-0.67 2.01 -0.34 1.02 0 0 Z " fill="#E4D9B4" transform="translate(5,194)"/>
<path d="M0 0 C0.66 0 1.32 0 2 0 C1.67 0.99 1.34 1.98 1 3 C0.67 2.01 0.34 1.02 0 0 Z " fill="#E4D7B2" transform="translate(4,191)"/>
<path d="M0 0 C0.99 0 1.98 0 3 0 C3 0.66 3 1.32 3 2 C2.01 1.67 1.02 1.34 0 1 C0 0.67 0 0.34 0 0 Z " fill="#F4EFDC" transform="translate(324,151)"/>
<path d="M0 0 C0.99 0.495 0.99 0.495 2 1 C1.67 1.99 1.34 2.98 1 4 C0.67 2.68 0.34 1.36 0 0 Z " fill="#F4EFDE" transform="translate(172,137)"/>
<path d="M0 0 C0.66 0.66 1.32 1.32 2 2 C1.01 2 0.02 2 -1 2 C-0.67 1.34 -0.34 0.68 0 0 Z " fill="#F2EAD2" transform="translate(320,92)"/>
<path d="M0 0 C0.66 0.33 1.32 0.66 2 1 C1.01 1 0.02 1 -1 1 C-0.67 0.67 -0.34 0.34 0 0 Z " fill="#E6DCB5" transform="translate(400,490)"/>
<path d="M0 0 C0.66 0 1.32 0 2 0 C2 0.66 2 1.32 2 2 C1.34 2 0.68 2 0 2 C0 1.34 0 0.68 0 0 Z " fill="#E9DDB9" transform="translate(117,403)"/>
<path d="M0 0 C0.66 0 1.32 0 2 0 C2 0.66 2 1.32 2 2 C1.34 2 0.68 2 0 2 C0 1.34 0 0.68 0 0 Z " fill="#E6DAB2" transform="translate(455,397)"/>
<path d="M0 0 C1 4 1 4 1 4 Z " fill="#E5D9B7" transform="translate(459,382)"/>
<path d="M0 0 C0.99 0.495 0.99 0.495 2 1 C1.67 1.66 1.34 2.32 1 3 C0.67 2.01 0.34 1.02 0 0 Z " fill="#E6D8B5" transform="translate(60,345)"/>
<path d="M0 0 C1 4 1 4 1 4 Z " fill="#F0EAD6" transform="translate(373,321)"/>
<path d="M0 0 C1 4 1 4 1 4 Z " fill="#F1EBD7" transform="translate(367,286)"/>
<path d="M0 0 C0 3 0 3 0 3 Z " fill="#F2EAD5" transform="translate(366,282)"/>
<path d="M0 0 C0.99 0.33 1.98 0.66 3 1 C2.01 1 1.02 1 0 1 C0 0.67 0 0.34 0 0 Z " fill="#F2EAD4" transform="translate(317,216)"/>
<path d="M0 0 C0.66 0 1.32 0 2 0 C2 0.66 2 1.32 2 2 C1.34 2 0.68 2 0 2 C0 1.34 0 0.68 0 0 Z " fill="#E8DFC3" transform="translate(417,175)"/>
<path d="M0 0 C0.66 0 1.32 0 2 0 C1.67 0.99 1.34 1.98 1 3 C0.67 2.01 0.34 1.02 0 0 Z " fill="#E4D9B2" transform="translate(6,175)"/>
<path d="M0 0 C1 4 1 4 1 4 Z " fill="#E5D8B0" transform="translate(8,168)"/>
<path d="M0 0 C0.66 0 1.32 0 2 0 C2 0.66 2 1.32 2 2 C1.34 2 0.68 2 0 2 C0 1.34 0 0.68 0 0 Z " fill="#F6EEDB" transform="translate(104,165)"/>
<path d="M0 0 C0 3 0 3 0 3 Z " fill="#F3EDD8" transform="translate(333,143)"/>
<path d="M0 0 C0.99 0.33 1.98 0.66 3 1 C2.01 1 1.02 1 0 1 C0 0.67 0 0.34 0 0 Z " fill="#F2EBD6" transform="translate(340,135)"/>
<path d="M0 0 C0.99 0.33 1.98 0.66 3 1 C2.01 1 1.02 1 0 1 C0 0.67 0 0.34 0 0 Z " fill="#EEE7D1" transform="translate(348,127)"/>
<path d="M0 0 C0.99 0.495 0.99 0.495 2 1 C1.34 1.66 0.68 2.32 0 3 C0 2.01 0 1.02 0 0 Z " fill="#E6DAB3" transform="translate(28,114)"/>
<path d="M0 0 C0.99 0.33 1.98 0.66 3 1 C2.01 1 1.02 1 0 1 C0 0.67 0 0.34 0 0 Z " fill="#E6D9B5" transform="translate(68,63)"/>
<path d="M0 0 C0.99 0.33 1.98 0.66 3 1 C2.01 1.33 1.02 1.66 0 2 C0 1.34 0 0.68 0 0 Z " fill="#E6DBB8" transform="translate(116,31)"/>
<path d="M0 0 C0.66 0.66 1.32 1.32 2 2 C1.01 1.67 0.02 1.34 -1 1 C-0.67 0.67 -0.34 0.34 0 0 Z " fill="#E4D6AE" transform="translate(159,15)"/>
<path d="M0 0 C4 1 4 1 4 1 Z " fill="#E6D9AF" transform="translate(180,12)"/>
<path d="M0 0 C4 1 4 1 4 1 Z " fill="#E7D9AF" transform="translate(267,10)"/>
<path d="M0 0 C3 1 3 1 3 1 Z " fill="#E0D4AA" transform="translate(275,558)"/>
<path d="M0 0 C0.99 0.495 0.99 0.495 2 1 C1.01 1.495 1.01 1.495 0 2 C0 1.34 0 0.68 0 0 Z " fill="#EBE1C1" transform="translate(120,507)"/>
<path d="M0 0 C3 1 3 1 3 1 Z " fill="#F9F3E2" transform="translate(308,452)"/>
<path d="M0 0 C0.99 0.495 0.99 0.495 2 1 C1.01 1.495 1.01 1.495 0 2 C0 1.34 0 0.68 0 0 Z " fill="#F0E8D1" transform="translate(268,359)"/>
<path d="M0 0 C0.33 0.66 0.66 1.32 1 2 C0.34 1.67 -0.32 1.34 -1 1 C-0.67 0.67 -0.34 0.34 0 0 Z " fill="#E7DCB7" transform="translate(465,357)"/>
<path d="" fill="#E4D8B4" transform="translate(0,0)"/>
<path d="M0 0 C0.99 0.495 0.99 0.495 2 1 C1.01 1.495 1.01 1.495 0 2 C0 1.34 0 0.68 0 0 Z " fill="#E5D7B1" transform="translate(52,337)"/>
<path d="" fill="#E4D8B2" transform="translate(0,0)"/>
<path d="M0 0 C0.33 0.66 0.66 1.32 1 2 C0.34 1.67 -0.32 1.34 -1 1 C-0.67 0.67 -0.34 0.34 0 0 Z " fill="#F1E9D3" transform="translate(138,287)"/>
<path d="" fill="#E4DAB3" transform="translate(0,0)"/>
<path d="M0 0 C0.66 0 1.32 0 2 0 C1.67 0.66 1.34 1.32 1 2 C0.67 1.34 0.34 0.68 0 0 Z " fill="#E5D7AE" transform="translate(14,271)"/>
<path d="" fill="#E3D7B3" transform="translate(0,0)"/>
<path d="M0 0 C0.33 0.66 0.66 1.32 1 2 C0.34 1.67 -0.32 1.34 -1 1 C-0.67 0.67 -0.34 0.34 0 0 Z " fill="#F1EAD2" transform="translate(345,244)"/>
<path d="M0 0 C0.33 0.66 0.66 1.32 1 2 C0.34 1.67 -0.32 1.34 -1 1 C-0.67 0.67 -0.34 0.34 0 0 Z " fill="#F3EBD4" transform="translate(343,241)"/>
<path d="" fill="#E9DEB9" transform="translate(0,0)"/>
<path d="M0 0 C0.33 0.66 0.66 1.32 1 2 C0.34 1.67 -0.32 1.34 -1 1 C-0.67 0.67 -0.34 0.34 0 0 Z " fill="#EFE6CF" transform="translate(301,203)"/>
<path d="" fill="#E9DFBE" transform="translate(0,0)"/>
<path d="M0 0 C3 1 3 1 3 1 Z " fill="#E8DEBC" transform="translate(425,186)"/>
<path d="M0 0 C0.33 0.66 0.66 1.32 1 2 C0.34 1.67 -0.32 1.34 -1 1 C-0.67 0.67 -0.34 0.34 0 0 Z " fill="#F1EAD4" transform="translate(295,183)"/>
<path d="" fill="#E5D8B0" transform="translate(0,0)"/>
<path d="" fill="#F5F0E1" transform="translate(0,0)"/>
<path d="M0 0 C0.33 0.66 0.66 1.32 1 2 C0.34 1.67 -0.32 1.34 -1 1 C-0.67 0.67 -0.34 0.34 0 0 Z " fill="#F4EFDD" transform="translate(324,153)"/>
<path d="M0 0 C0.66 0 1.32 0 2 0 C1.67 0.66 1.34 1.32 1 2 C0.67 1.34 0.34 0.68 0 0 Z " fill="#E9E1C7" transform="translate(393,151)"/>
<path d="M0 0 C0.99 0.495 0.99 0.495 2 1 C1.01 1.495 1.01 1.495 0 2 C0 1.34 0 0.68 0 0 Z " fill="#E4D8B4" transform="translate(12,151)"/>
<path d="M0 0 C0.66 0.66 1.32 1.32 2 2 C1.34 2 0.68 2 0 2 C0 1.34 0 0.68 0 0 Z " fill="#F4EDD9" transform="translate(264,149)"/>
<path d="M0 0 C0.66 0 1.32 0 2 0 C1.67 0.66 1.34 1.32 1 2 C0.67 1.34 0.34 0.68 0 0 Z " fill="#F3EBD7" transform="translate(279,133)"/>
<path d="M0 0 C0.33 0.66 0.66 1.32 1 2 C0.34 1.67 -0.32 1.34 -1 1 C-0.67 0.67 -0.34 0.34 0 0 Z " fill="#F5EEDF" transform="translate(127,131)"/>
<path d="M0 0 C0.99 0.495 0.99 0.495 2 1 C1.01 1.495 1.01 1.495 0 2 C0 1.34 0 0.68 0 0 Z " fill="#E7D9B5" transform="translate(20,130)"/>
<path d="M0 0 C0.33 0.66 0.66 1.32 1 2 C0.34 1.67 -0.32 1.34 -1 1 C-0.67 0.67 -0.34 0.34 0 0 Z " fill="#E8DBB5" transform="translate(39,97)"/>
<path d="" fill="#E2D6AF" transform="translate(0,0)"/>
<path d="M0 0 C0.66 0 1.32 0 2 0 C1.67 0.66 1.34 1.32 1 2 C0.67 1.34 0.34 0.68 0 0 Z " fill="#E7DBB6" transform="translate(44,89)"/>
<path d="M0 0 C3 1 3 1 3 1 Z " fill="#E7DBB5" transform="translate(132,24)"/>
<path d="M0 0 C2 1 2 1 2 1 Z " fill="#E4D9B2" transform="translate(272,558)"/>
<path d="M0 0 C2 1 2 1 2 1 Z " fill="#E1D4A8" transform="translate(313,549)"/>
<path d="" fill="#E2D5AA" transform="translate(0,0)"/>
<path d="M0 0 C2 1 2 1 2 1 Z " fill="#E7DBB2" transform="translate(328,542)"/>
<path d="M0 0 C2 1 2 1 2 1 Z " fill="#E7D9B3" transform="translate(344,534)"/>
<path d="" fill="#E7DCB4" transform="translate(0,0)"/>
<path d="M0 0 C2 1 2 1 2 1 Z " fill="#E6DCB5" transform="translate(381,508)"/>
<path d="M0 0 C2 1 2 1 2 1 Z " fill="#E8DCB6" transform="translate(394,496)"/>
<path d="M0 0 C2 1 2 1 2 1 Z " fill="#EADDB7" transform="translate(411,478)"/>
<path d="" fill="#F2EBD3" transform="translate(0,0)"/>
<path d="M0 0 C2 1 2 1 2 1 Z " fill="#E8DDB8" transform="translate(423,462)"/>
<path d="" fill="#F7F4E3" transform="translate(0,0)"/>
<path d="" fill="#F7F4E5" transform="translate(0,0)"/>
<path d="M0 0 C2 1 2 1 2 1 Z " fill="#F7F1E1" transform="translate(317,447)"/>
<path d="" fill="#F6F2E3" transform="translate(0,0)"/>
<path d="M0 0 C2 1 2 1 2 1 Z " fill="#F2EDD8" transform="translate(195,432)"/>
<path d="" fill="#E9DCBB" transform="translate(0,0)"/>
<path d="M0 0 C2 1 2 1 2 1 Z " fill="#E8DCB7" transform="translate(124,412)"/>
<path d="" fill="#E5D9B4" transform="translate(0,0)"/>
<path d="M0 0 C2 1 2 1 2 1 Z " fill="#F4EEDD" transform="translate(356,400)"/>
<path d="M0 0 C2 1 2 1 2 1 Z " fill="#ECDFBE" transform="translate(111,397)"/>
<path d="M0 0 C2 1 2 1 2 1 Z " fill="#F2ECD9" transform="translate(236,391)"/>
<path d="" fill="#F2E8D1" transform="translate(0,0)"/>
<path d="" fill="#F5EEDA" transform="translate(0,0)"/>
<path d="M0 0 C2 1 2 1 2 1 Z " fill="#EEE7CB" transform="translate(192,366)"/>
<path d="" fill="#E3D9B2" transform="translate(0,0)"/>
<path d="" fill="#E3D8B4" transform="translate(0,0)"/>
<path d="M0 0 C2 1 2 1 2 1 Z " fill="#F2EAD3" transform="translate(271,356)"/>
<path d="" fill="#E6DBB6" transform="translate(0,0)"/>
<path d="" fill="#EBE2C4" transform="translate(0,0)"/>
<path d="M0 0 C2 1 2 1 2 1 Z " fill="#EFE7CA" transform="translate(194,346)"/>
<path d="" fill="#E7DBB3" transform="translate(0,0)"/>
<path d="" fill="#F2ECD8" transform="translate(0,0)"/>
<path d="" fill="#E2D7B2" transform="translate(0,0)"/>
<path d="" fill="#F2E8D1" transform="translate(0,0)"/>
<path d="" fill="#EFEAD5" transform="translate(0,0)"/>
<path d="M0 0 C2 1 2 1 2 1 Z " fill="#F7F0DC" transform="translate(152,307)"/>
<path d="M0 0 C2 1 2 1 2 1 Z " fill="#F5EED9" transform="translate(126,280)"/>
<path d="" fill="#F2E9D1" transform="translate(0,0)"/>
<path d="" fill="#E8DBB4" transform="translate(0,0)"/>
<path d="M0 0 C2 1 2 1 2 1 Z " fill="#F2EAD3" transform="translate(340,239)"/>
<path d="" fill="#E5D7AD" transform="translate(0,0)"/>
<path d="" fill="#EBE2C4" transform="translate(0,0)"/>
<path d="" fill="#ECDFBD" transform="translate(0,0)"/>
<path d="M0 0 C2 1 2 1 2 1 Z " fill="#E4DBBB" transform="translate(180,228)"/>
<path d="" fill="#F1EAD1" transform="translate(0,0)"/>
<path d="" fill="#E8DEBD" transform="translate(0,0)"/>
<path d="" fill="#F4EFDF" transform="translate(0,0)"/>
<path d="" fill="#E4D8B0" transform="translate(0,0)"/>
<path d="" fill="#E3D8AF" transform="translate(0,0)"/>
<path d="M0 0 C2 1 2 1 2 1 Z " fill="#E8DBBA" transform="translate(425,184)"/>
<path d="" fill="#F1EBDB" transform="translate(0,0)"/>
<path d="M0 0 C2 1 2 1 2 1 Z " fill="#F4EEDB" transform="translate(310,167)"/>
<path d="" fill="#F5F0E2" transform="translate(0,0)"/>
<path d="" fill="#F3EBDA" transform="translate(0,0)"/>
<path d="" fill="#F5F0DE" transform="translate(0,0)"/>
<path d="" fill="#E8DDB8" transform="translate(0,0)"/>
<path d="" fill="#F4EFDD" transform="translate(0,0)"/>
<path d="M0 0 C2 1 2 1 2 1 Z " fill="#E2D6AE" transform="translate(13,148)"/>
<path d="" fill="#E3D7B0" transform="translate(0,0)"/>
<path d="M0 0 C2 1 2 1 2 1 Z " fill="#E8DFC4" transform="translate(383,143)"/>
<path d="M0 0 C2 1 2 1 2 1 Z " fill="#F5EDD9" transform="translate(122,142)"/>
<path d="" fill="#E6D8B0" transform="translate(0,0)"/>
<path d="" fill="#EEE4C6" transform="translate(0,0)"/>
<path d="" fill="#EDE2C4" transform="translate(0,0)"/>
<path d="" fill="#E4D7B3" transform="translate(0,0)"/>
<path d="" fill="#F4ECD8" transform="translate(0,0)"/>
<path d="" fill="#F4EDDD" transform="translate(0,0)"/>
<path d="M0 0 C2 1 2 1 2 1 Z " fill="#F4EDDC" transform="translate(149,116)"/>
<path d="" fill="#E5D9B7" transform="translate(0,0)"/>
<path d="" fill="#F1E7CE" transform="translate(0,0)"/>
<path d="" fill="#ECE2C1" transform="translate(0,0)"/>
<path d="M0 0 C2 1 2 1 2 1 Z " fill="#E2D6AF" transform="translate(76,55)"/>
<path d="" fill="#EAE0BE" transform="translate(0,0)"/>
<path d="" fill="#DED0A7" transform="translate(0,0)"/>
<path d="M0 0 C2 1 2 1 2 1 Z " fill="#E5D9B0" transform="translate(154,17)"/>
<path d="M0 0 C2 1 2 1 2 1 Z " fill="#E1D3AB" transform="translate(162,15)"/>
<path d="M0 0 C2 1 2 1 2 1 Z " fill="#E3D4AB" transform="translate(156,15)"/>
<path d="M0 0 C2 1 2 1 2 1 Z " fill="#E3D4A8" transform="translate(315,10)"/>
<path d="M0 0 C2 1 2 1 2 1 Z " fill="#E7DAAF" transform="translate(229,10)"/>
<path d="" fill="#DFD09E" transform="translate(0,0)"/>
<path d="" fill="#DCCE99" transform="translate(0,0)"/>
<path d="" fill="#E3D3A9" transform="translate(0,0)"/>
<path d="" fill="#E1D4A8" transform="translate(0,0)"/>
<path d="" fill="#D1BF78" transform="translate(0,0)"/>
<path d="" fill="#E1D3A9" transform="translate(0,0)"/>
<path d="" fill="#D0BA73" transform="translate(0,0)"/>
<path d="" fill="#E3D5A9" transform="translate(0,0)"/>
<path d="" fill="#CEB975" transform="translate(0,0)"/>
<path d="" fill="#E1D4A7" transform="translate(0,0)"/>
<path d="" fill="#E2D3AB" transform="translate(0,0)"/>
<path d="" fill="#E3D7AC" transform="translate(0,0)"/>
<path d="" fill="#E3D7AB" transform="translate(0,0)"/>
<path d="" fill="#E2D7AA" transform="translate(0,0)"/>
<path d="" fill="#D6C385" transform="translate(0,0)"/>
<path d="" fill="#E1D3A7" transform="translate(0,0)"/>
<path d="" fill="#E2D5AB" transform="translate(0,0)"/>
<path d="" fill="#DED4A8" transform="translate(0,0)"/>
<path d="" fill="#DCCD97" transform="translate(0,0)"/>
<path d="" fill="#E2D6B0" transform="translate(0,0)"/>
<path d="" fill="#E3D7AD" transform="translate(0,0)"/>
<path d="" fill="#E4D8AE" transform="translate(0,0)"/>
<path d="" fill="#DECEA0" transform="translate(0,0)"/>
<path d="" fill="#E2D6AE" transform="translate(0,0)"/>
<path d="" fill="#E5D7B0" transform="translate(0,0)"/>
<path d="" fill="#E6D9B1" transform="translate(0,0)"/>
<path d="" fill="#E1D4AD" transform="translate(0,0)"/>
<path d="" fill="#E5D9B5" transform="translate(0,0)"/>
<path d="" fill="#E8DBB2" transform="translate(0,0)"/>
<path d="" fill="#E5D8B1" transform="translate(0,0)"/>
<path d="" fill="#EBE0BD" transform="translate(0,0)"/>
<path d="" fill="#E5DBB5" transform="translate(0,0)"/>
<path d="" fill="#E8DFB7" transform="translate(0,0)"/>
<path d="" fill="#EBDFC2" transform="translate(0,0)"/>
<path d="" fill="#ECE2C1" transform="translate(0,0)"/>
<path d="" fill="#E5DDB5" transform="translate(0,0)"/>
<path d="" fill="#E5DBB4" transform="translate(0,0)"/>
<path d="" fill="#EFE5C8" transform="translate(0,0)"/>
<path d="" fill="#F0E6CC" transform="translate(0,0)"/>
<path d="" fill="#E5D8AF" transform="translate(0,0)"/>
<path d="" fill="#EDE4C4" transform="translate(0,0)"/>
<path d="" fill="#E7DCBA" transform="translate(0,0)"/>
<path d="" fill="#EBE2BF" transform="translate(0,0)"/>
<path d="" fill="#F1E5CA" transform="translate(0,0)"/>
<path d="" fill="#E5D9B0" transform="translate(0,0)"/>
<path d="" fill="#E7DCB5" transform="translate(0,0)"/>
<path d="" fill="#F1E6C9" transform="translate(0,0)"/>
<path d="" fill="#EEE5CA" transform="translate(0,0)"/>
<path d="" fill="#EFE8CC" transform="translate(0,0)"/>
<path d="" fill="#E4D8AF" transform="translate(0,0)"/>
<path d="" fill="#F1E9CD" transform="translate(0,0)"/>
<path d="" fill="#F0E8CE" transform="translate(0,0)"/>
<path d="" fill="#F2EBD2" transform="translate(0,0)"/>
<path d="" fill="#F0E9D1" transform="translate(0,0)"/>
<path d="" fill="#F6EED3" transform="translate(0,0)"/>
<path d="" fill="#E9DEBA" transform="translate(0,0)"/>
<path d="" fill="#F2ECD4" transform="translate(0,0)"/>
<path d="" fill="#EDDFBD" transform="translate(0,0)"/>
<path d="" fill="#F2EBD4" transform="translate(0,0)"/>
<path d="" fill="#F5EDD7" transform="translate(0,0)"/>
<path d="" fill="#F3EBD6" transform="translate(0,0)"/>
<path d="" fill="#EFEACE" transform="translate(0,0)"/>
<path d="" fill="#F8F4E8" transform="translate(0,0)"/>
<path d="" fill="#E4D8A9" transform="translate(0,0)"/>
<path d="" fill="#F5EEDB" transform="translate(0,0)"/>
<path d="" fill="#F5EFDF" transform="translate(0,0)"/>
<path d="" fill="#F7F1E2" transform="translate(0,0)"/>
<path d="" fill="#F8F3E3" transform="translate(0,0)"/>
<path d="" fill="#F7F1E0" transform="translate(0,0)"/>
<path d="" fill="#F7F0E2" transform="translate(0,0)"/>
<path d="" fill="#F7F2E1" transform="translate(0,0)"/>
<path d="" fill="#F3ECD8" transform="translate(0,0)"/>
<path d="" fill="#E1D7B2" transform="translate(0,0)"/>
<path d="" fill="#F7F1E1" transform="translate(0,0)"/>
<path d="" fill="#F5F1E3" transform="translate(0,0)"/>
<path d="" fill="#FBF2DF" transform="translate(0,0)"/>
<path d="" fill="#F7EFD9" transform="translate(0,0)"/>
<path d="" fill="#F8F0E0" transform="translate(0,0)"/>
<path d="" fill="#F5F1E1" transform="translate(0,0)"/>
<path d="" fill="#E5D8B0" transform="translate(0,0)"/>
<path d="" fill="#E8DCB3" transform="translate(0,0)"/>
<path d="" fill="#F6EFDE" transform="translate(0,0)"/>
<path d="" fill="#F4EEDF" transform="translate(0,0)"/>
<path d="" fill="#E7DBB3" transform="translate(0,0)"/>
<path d="" fill="#F7F1DC" transform="translate(0,0)"/>
<path d="" fill="#E7DBB3" transform="translate(0,0)"/>
<path d="" fill="#F5EFE0" transform="translate(0,0)"/>
<path d="" fill="#E6D9B5" transform="translate(0,0)"/>
<path d="" fill="#F7EFDA" transform="translate(0,0)"/>
<path d="" fill="#F7F1E2" transform="translate(0,0)"/>
<path d="" fill="#F5EFD9" transform="translate(0,0)"/>
<path d="" fill="#F4F1E5" transform="translate(0,0)"/>
<path d="" fill="#F2EAD5" transform="translate(0,0)"/>
<path d="" fill="#F9F2E3" transform="translate(0,0)"/>
<path d="" fill="#F5F0DA" transform="translate(0,0)"/>
<path d="" fill="#E8DCB6" transform="translate(0,0)"/>
<path d="" fill="#F6F0DF" transform="translate(0,0)"/>
<path d="" fill="#F8F3E0" transform="translate(0,0)"/>
<path d="" fill="#F5EED8" transform="translate(0,0)"/>
<path d="" fill="#F1EAD3" transform="translate(0,0)"/>
<path d="" fill="#F2E9D2" transform="translate(0,0)"/>
<path d="" fill="#E7D8B3" transform="translate(0,0)"/>
<path d="" fill="#E4D8B3" transform="translate(0,0)"/>
<path d="" fill="#E9DEB8" transform="translate(0,0)"/>
<path d="" fill="#F6F0DC" transform="translate(0,0)"/>
<path d="" fill="#F6F2E1" transform="translate(0,0)"/>
<path d="" fill="#E8DAB6" transform="translate(0,0)"/>
<path d="" fill="#F6EFDC" transform="translate(0,0)"/>
<path d="" fill="#F8F0DD" transform="translate(0,0)"/>
<path d="" fill="#F3EDDA" transform="translate(0,0)"/>
<path d="" fill="#EEE6CB" transform="translate(0,0)"/>
<path d="" fill="#EADCB6" transform="translate(0,0)"/>
<path d="" fill="#F7F1E1" transform="translate(0,0)"/>
<path d="" fill="#E9DDB9" transform="translate(0,0)"/>
<path d="" fill="#F6F0DB" transform="translate(0,0)"/>
<path d="" fill="#F8F0DB" transform="translate(0,0)"/>
<path d="" fill="#F1EBD0" transform="translate(0,0)"/>
<path d="" fill="#F4EBDA" transform="translate(0,0)"/>
<path d="" fill="#F3EAD8" transform="translate(0,0)"/>
<path d="" fill="#E8DBB7" transform="translate(0,0)"/>
<path d="" fill="#F9F3E6" transform="translate(0,0)"/>
<path d="" fill="#F1EAD1" transform="translate(0,0)"/>
<path d="" fill="#F2E9D4" transform="translate(0,0)"/>
<path d="" fill="#F1E9D0" transform="translate(0,0)"/>
<path d="" fill="#F5EFDD" transform="translate(0,0)"/>
<path d="" fill="#F7EFDE" transform="translate(0,0)"/>
<path d="" fill="#F1EAD1" transform="translate(0,0)"/>
<path d="" fill="#F1E9D0" transform="translate(0,0)"/>
<path d="" fill="#EADEB8" transform="translate(0,0)"/>
<path d="" fill="#E6DBB2" transform="translate(0,0)"/>
<path d="" fill="#F3EBD3" transform="translate(0,0)"/>
<path d="" fill="#EADDB8" transform="translate(0,0)"/>
<path d="" fill="#F9F5E2" transform="translate(0,0)"/>
<path d="" fill="#E9DBB1" transform="translate(0,0)"/>
<path d="" fill="#F5EED9" transform="translate(0,0)"/>
<path d="" fill="#F5EED9" transform="translate(0,0)"/>
<path d="" fill="#F3EDD7" transform="translate(0,0)"/>
<path d="" fill="#F0E7CD" transform="translate(0,0)"/>
<path d="" fill="#F4ECD6" transform="translate(0,0)"/>
<path d="" fill="#F2E7CE" transform="translate(0,0)"/>
<path d="" fill="#E5D8B1" transform="translate(0,0)"/>
<path d="" fill="#E8DCB6" transform="translate(0,0)"/>
<path d="" fill="#F1E8CE" transform="translate(0,0)"/>
<path d="" fill="#E9DCB6" transform="translate(0,0)"/>
<path d="" fill="#F0E6CE" transform="translate(0,0)"/>
<path d="" fill="#EEE7CC" transform="translate(0,0)"/>
<path d="" fill="#EFE7CD" transform="translate(0,0)"/>
<path d="" fill="#EFE6CF" transform="translate(0,0)"/>
<path d="" fill="#F0E8D0" transform="translate(0,0)"/>
<path d="" fill="#EAE1C3" transform="translate(0,0)"/>
<path d="" fill="#E7DDB6" transform="translate(0,0)"/>
<path d="" fill="#E7DBB4" transform="translate(0,0)"/>
<path d="" fill="#E5DAB5" transform="translate(0,0)"/>
<path d="" fill="#E7DBB7" transform="translate(0,0)"/>
<path d="" fill="#EFE8C9" transform="translate(0,0)"/>
<path d="" fill="#E8DAB4" transform="translate(0,0)"/>
<path d="" fill="#EEE6C8" transform="translate(0,0)"/>
<path d="" fill="#EEE8CB" transform="translate(0,0)"/>
<path d="" fill="#ECDFBE" transform="translate(0,0)"/>
<path d="" fill="#EADEC1" transform="translate(0,0)"/>
<path d="" fill="#E5D8B2" transform="translate(0,0)"/>
<path d="" fill="#F3ECD6" transform="translate(0,0)"/>
<path d="" fill="#F0E6CB" transform="translate(0,0)"/>
<path d="" fill="#E3D5B0" transform="translate(0,0)"/>
<path d="" fill="#EFE8CD" transform="translate(0,0)"/>
<path d="" fill="#ECE2C4" transform="translate(0,0)"/>
<path d="" fill="#F2EBD0" transform="translate(0,0)"/>
<path d="" fill="#EADFBD" transform="translate(0,0)"/>
<path d="" fill="#EAE0BF" transform="translate(0,0)"/>
<path d="" fill="#ECE2C3" transform="translate(0,0)"/>
<path d="" fill="#E3D7AF" transform="translate(0,0)"/>
<path d="" fill="#E7D9AF" transform="translate(0,0)"/>
<path d="" fill="#F5EDDD" transform="translate(0,0)"/>
<path d="" fill="#F1E9CA" transform="translate(0,0)"/>
<path d="" fill="#E3D6B2" transform="translate(0,0)"/>
<path d="" fill="#E1D6A8" transform="translate(0,0)"/>
<path d="" fill="#F2EBD4" transform="translate(0,0)"/>
<path d="" fill="#F2E9D6" transform="translate(0,0)"/>
<path d="" fill="#F3ECD5" transform="translate(0,0)"/>
<path d="" fill="#EBDEB3" transform="translate(0,0)"/>
<path d="" fill="#F6EDD6" transform="translate(0,0)"/>
<path d="" fill="#E6D8AD" transform="translate(0,0)"/>
<path d="" fill="#F2E8D2" transform="translate(0,0)"/>
<path d="" fill="#ECDFBD" transform="translate(0,0)"/>
<path d="" fill="#E4D8B8" transform="translate(0,0)"/>
<path d="" fill="#F2E9D0" transform="translate(0,0)"/>
<path d="" fill="#EFE4CB" transform="translate(0,0)"/>
<path d="" fill="#E7DDB8" transform="translate(0,0)"/>
<path d="" fill="#F6EBD4" transform="translate(0,0)"/>
<path d="" fill="#E9DBB1" transform="translate(0,0)"/>
<path d="" fill="#F2EDD5" transform="translate(0,0)"/>
<path d="" fill="#E3D8B4" transform="translate(0,0)"/>
<path d="" fill="#F5F3DE" transform="translate(0,0)"/>
<path d="" fill="#F3EBD5" transform="translate(0,0)"/>
<path d="" fill="#F3E9D3" transform="translate(0,0)"/>
<path d="" fill="#F0E7D1" transform="translate(0,0)"/>
<path d="" fill="#F2EAD4" transform="translate(0,0)"/>
<path d="" fill="#E3D7AF" transform="translate(0,0)"/>
<path d="" fill="#E1D3A7" transform="translate(0,0)"/>
<path d="" fill="#EAE1BC" transform="translate(0,0)"/>
<path d="" fill="#F3EDD4" transform="translate(0,0)"/>
<path d="" fill="#F2ECD5" transform="translate(0,0)"/>
<path d="" fill="#E8DEB8" transform="translate(0,0)"/>
<path d="" fill="#E5DAB5" transform="translate(0,0)"/>
<path d="" fill="#F4EDD9" transform="translate(0,0)"/>
<path d="" fill="#F6F0D9" transform="translate(0,0)"/>
<path d="" fill="#F3EAD4" transform="translate(0,0)"/>
<path d="" fill="#F5EBD4" transform="translate(0,0)"/>
<path d="" fill="#E1D2A8" transform="translate(0,0)"/>
<path d="" fill="#F3ECD6" transform="translate(0,0)"/>
<path d="" fill="#F2ECD4" transform="translate(0,0)"/>
<path d="" fill="#F6EDDA" transform="translate(0,0)"/>
<path d="" fill="#E4D6B0" transform="translate(0,0)"/>
<path d="" fill="#F5ECDA" transform="translate(0,0)"/>
<path d="" fill="#E5DAB2" transform="translate(0,0)"/>
<path d="" fill="#F2E9D7" transform="translate(0,0)"/>
<path d="" fill="#E5DDB3" transform="translate(0,0)"/>
<path d="" fill="#F0E8D3" transform="translate(0,0)"/>
<path d="" fill="#F0E9D0" transform="translate(0,0)"/>
<path d="" fill="#E7D7B0" transform="translate(0,0)"/>
<path d="" fill="#E6D9AF" transform="translate(0,0)"/>
<path d="" fill="#E2D6A8" transform="translate(0,0)"/>
<path d="" fill="#F2EBD4" transform="translate(0,0)"/>
<path d="" fill="#E1D4A6" transform="translate(0,0)"/>
<path d="" fill="#F3EBD6" transform="translate(0,0)"/>
<path d="" fill="#F2ECD6" transform="translate(0,0)"/>
<path d="" fill="#F5F0DB" transform="translate(0,0)"/>
<path d="" fill="#F4EFD6" transform="translate(0,0)"/>
<path d="" fill="#F1ECD8" transform="translate(0,0)"/>
<path d="" fill="#F3EDD8" transform="translate(0,0)"/>
<path d="" fill="#F1EAD4" transform="translate(0,0)"/>
<path d="" fill="#F4EED7" transform="translate(0,0)"/>
<path d="" fill="#F1EAD5" transform="translate(0,0)"/>
<path d="" fill="#E3D6A9" transform="translate(0,0)"/>
<path d="" fill="#E6D9B3" transform="translate(0,0)"/>
<path d="" fill="#F5EBD3" transform="translate(0,0)"/>
<path d="" fill="#E5D9B3" transform="translate(0,0)"/>
<path d="" fill="#F4EFDA" transform="translate(0,0)"/>
<path d="" fill="#F9F3DF" transform="translate(0,0)"/>
<path d="" fill="#F0EAD1" transform="translate(0,0)"/>
<path d="" fill="#F2E9D1" transform="translate(0,0)"/>
<path d="" fill="#F6EFDA" transform="translate(0,0)"/>
<path d="" fill="#E6D8AF" transform="translate(0,0)"/>
<path d="" fill="#F4ECD6" transform="translate(0,0)"/>
<path d="" fill="#F2EAD4" transform="translate(0,0)"/>
<path d="" fill="#F1E9D1" transform="translate(0,0)"/>
<path d="" fill="#F3E9CF" transform="translate(0,0)"/>
<path d="" fill="#F2EBD2" transform="translate(0,0)"/>
<path d="" fill="#E2D5AA" transform="translate(0,0)"/>
<path d="" fill="#F2EBD7" transform="translate(0,0)"/>
<path d="" fill="#E1D4AA" transform="translate(0,0)"/>
<path d="" fill="#E6DAB1" transform="translate(0,0)"/>
<path d="" fill="#F6F2DF" transform="translate(0,0)"/>
<path d="" fill="#F1ECDA" transform="translate(0,0)"/>
<path d="" fill="#E3D7B0" transform="translate(0,0)"/>
<path d="" fill="#F3EAD3" transform="translate(0,0)"/>
<path d="" fill="#E4D4AB" transform="translate(0,0)"/>
<path d="" fill="#E5D5AA" transform="translate(0,0)"/>
<path d="" fill="#E5DCAF" transform="translate(0,0)"/>
<path d="" fill="#F3EEDA" transform="translate(0,0)"/>
<path d="" fill="#EADBB8" transform="translate(0,0)"/>
<path d="" fill="#EDE0C0" transform="translate(0,0)"/>
<path d="" fill="#E8DFBC" transform="translate(0,0)"/>
<path d="" fill="#F2EEDB" transform="translate(0,0)"/>
<path d="" fill="#EEE3C5" transform="translate(0,0)"/>
<path d="" fill="#F1ECD8" transform="translate(0,0)"/>
<path d="" fill="#F2EBD3" transform="translate(0,0)"/>
<path d="" fill="#F3EAD5" transform="translate(0,0)"/>
<path d="" fill="#E9E2C7" transform="translate(0,0)"/>
<path d="" fill="#F4EAD4" transform="translate(0,0)"/>
<path d="" fill="#F4EBD2" transform="translate(0,0)"/>
<path d="" fill="#F4E9D1" transform="translate(0,0)"/>
<path d="" fill="#F0E8CE" transform="translate(0,0)"/>
<path d="" fill="#F0EBD8" transform="translate(0,0)"/>
<path d="" fill="#E2D5AA" transform="translate(0,0)"/>
<path d="" fill="#E6DCB7" transform="translate(0,0)"/>
<path d="" fill="#F3EDD6" transform="translate(0,0)"/>
<path d="" fill="#EFE9CD" transform="translate(0,0)"/>
<path d="" fill="#F2ECD6" transform="translate(0,0)"/>
<path d="" fill="#F2E8CB" transform="translate(0,0)"/>
<path d="" fill="#EFE4CC" transform="translate(0,0)"/>
<path d="" fill="#F5EDD6" transform="translate(0,0)"/>
<path d="" fill="#F2EDDB" transform="translate(0,0)"/>
<path d="" fill="#EEE4CA" transform="translate(0,0)"/>
<path d="" fill="#E7DEBE" transform="translate(0,0)"/>
<path d="" fill="#F4EDDA" transform="translate(0,0)"/>
<path d="" fill="#EEE6CC" transform="translate(0,0)"/>
<path d="" fill="#EEE6CD" transform="translate(0,0)"/>
<path d="" fill="#E2D7AF" transform="translate(0,0)"/>
<path d="" fill="#EFE6CF" transform="translate(0,0)"/>
<path d="" fill="#F1E8D4" transform="translate(0,0)"/>
<path d="" fill="#F4E7CF" transform="translate(0,0)"/>
<path d="" fill="#F2E9D4" transform="translate(0,0)"/>
<path d="" fill="#F8F4E8" transform="translate(0,0)"/>
<path d="" fill="#E7DAB7" transform="translate(0,0)"/>
<path d="" fill="#EBE2C0" transform="translate(0,0)"/>
<path d="" fill="#E8DBB1" transform="translate(0,0)"/>
<path d="" fill="#E9DCBD" transform="translate(0,0)"/>
<path d="" fill="#F4ECD8" transform="translate(0,0)"/>
<path d="" fill="#E3D5AC" transform="translate(0,0)"/>
<path d="" fill="#F4EEDD" transform="translate(0,0)"/>
<path d="" fill="#F2ECD8" transform="translate(0,0)"/>
<path d="" fill="#F1EBD2" transform="translate(0,0)"/>
<path d="" fill="#F3EBD5" transform="translate(0,0)"/>
<path d="" fill="#F1EBD1" transform="translate(0,0)"/>
<path d="" fill="#F7F3E4" transform="translate(0,0)"/>
<path d="" fill="#F4EFD9" transform="translate(0,0)"/>
<path d="" fill="#F4EAD5" transform="translate(0,0)"/>
<path d="" fill="#F3EBDA" transform="translate(0,0)"/>
<path d="" fill="#F2EAD8" transform="translate(0,0)"/>
<path d="" fill="#E8DAB9" transform="translate(0,0)"/>
<path d="" fill="#F2EAD5" transform="translate(0,0)"/>
<path d="" fill="#F1EAD4" transform="translate(0,0)"/>
<path d="" fill="#ECE0C0" transform="translate(0,0)"/>
<path d="" fill="#F7F0E1" transform="translate(0,0)"/>
<path d="" fill="#F5ECD9" transform="translate(0,0)"/>
<path d="" fill="#F3ECD8" transform="translate(0,0)"/>
<path d="" fill="#F8F2E3" transform="translate(0,0)"/>
<path d="" fill="#F5ECD5" transform="translate(0,0)"/>
<path d="" fill="#F3EDD9" transform="translate(0,0)"/>
<path d="" fill="#F3EFD5" transform="translate(0,0)"/>
<path d="" fill="#F0EAD3" transform="translate(0,0)"/>
<path d="" fill="#F6EEDA" transform="translate(0,0)"/>
<path d="" fill="#F2EDD6" transform="translate(0,0)"/>
<path d="" fill="#F4EFD8" transform="translate(0,0)"/>
<path d="" fill="#F5ECD7" transform="translate(0,0)"/>
<path d="" fill="#F6F1E2" transform="translate(0,0)"/>
<path d="" fill="#EBE2C5" transform="translate(0,0)"/>
<path d="" fill="#F3EDDC" transform="translate(0,0)"/>
<path d="" fill="#F2EAD6" transform="translate(0,0)"/>
<path d="" fill="#ECE0C4" transform="translate(0,0)"/>
<path d="" fill="#F3EEDB" transform="translate(0,0)"/>
<path d="" fill="#F3EEDA" transform="translate(0,0)"/>
<path d="" fill="#F3EBD9" transform="translate(0,0)"/>
<path d="" fill="#F7F1E2" transform="translate(0,0)"/>
<path d="" fill="#F6F3E4" transform="translate(0,0)"/>
<path d="" fill="#F0E5C4" transform="translate(0,0)"/>
<path d="" fill="#F8F4E4" transform="translate(0,0)"/>
<path d="" fill="#F3EDD9" transform="translate(0,0)"/>
<path d="" fill="#ECE2C0" transform="translate(0,0)"/>
<path d="" fill="#F1EBD5" transform="translate(0,0)"/>
<path d="" fill="#F8F2E3" transform="translate(0,0)"/>
<path d="" fill="#F4EEDF" transform="translate(0,0)"/>
<path d="" fill="#F4ECDA" transform="translate(0,0)"/>
<path d="" fill="#E9DDB9" transform="translate(0,0)"/>
<path d="" fill="#F3ECDB" transform="translate(0,0)"/>
<path d="" fill="#F4EEDC" transform="translate(0,0)"/>
<path d="" fill="#F7EDDD" transform="translate(0,0)"/>
<path d="" fill="#F3EDDE" transform="translate(0,0)"/>
<path d="" fill="#F6EFE0" transform="translate(0,0)"/>
<path d="" fill="#E7DAB4" transform="translate(0,0)"/>
<path d="" fill="#E2D6AD" transform="translate(0,0)"/>
<path d="" fill="#F8F1E8" transform="translate(0,0)"/>
<path d="" fill="#F3EFDC" transform="translate(0,0)"/>
<path d="" fill="#F5EFDF" transform="translate(0,0)"/>
<path d="" fill="#E9DDB6" transform="translate(0,0)"/>
<path d="" fill="#F4EEDA" transform="translate(0,0)"/>
<path d="" fill="#F1EFDD" transform="translate(0,0)"/>
<path d="" fill="#F4EFDB" transform="translate(0,0)"/>
<path d="" fill="#F4EDDC" transform="translate(0,0)"/>
<path d="" fill="#F4EEDD" transform="translate(0,0)"/>
<path d="" fill="#F4EDDA" transform="translate(0,0)"/>
<path d="" fill="#F5F0DB" transform="translate(0,0)"/>
<path d="" fill="#E9DEBC" transform="translate(0,0)"/>
<path d="" fill="#E4D7B0" transform="translate(0,0)"/>
<path d="" fill="#F3EED6" transform="translate(0,0)"/>
<path d="" fill="#F4ECD8" transform="translate(0,0)"/>
<path d="" fill="#F7EFD9" transform="translate(0,0)"/>
<path d="" fill="#F3EBD3" transform="translate(0,0)"/>
<path d="" fill="#E6DAB4" transform="translate(0,0)"/>
<path d="" fill="#E8DAB3" transform="translate(0,0)"/>
<path d="" fill="#F4EED7" transform="translate(0,0)"/>
<path d="" fill="#F0EAD5" transform="translate(0,0)"/>
<path d="" fill="#EBE0B8" transform="translate(0,0)"/>
<path d="" fill="#E3D7B2" transform="translate(0,0)"/>
<path d="" fill="#EDE3C9" transform="translate(0,0)"/>
<path d="" fill="#F2E8D0" transform="translate(0,0)"/>
<path d="" fill="#F3E9D2" transform="translate(0,0)"/>
<path d="" fill="#EBE3C7" transform="translate(0,0)"/>
<path d="" fill="#EFE5CA" transform="translate(0,0)"/>
<path d="" fill="#EADEBB" transform="translate(0,0)"/>
<path d="" fill="#EDE1C3" transform="translate(0,0)"/>
<path d="" fill="#E8DAB1" transform="translate(0,0)"/>
<path d="" fill="#ECE1BD" transform="translate(0,0)"/>
<path d="" fill="#E9DCB8" transform="translate(0,0)"/>
<path d="" fill="#EADBB5" transform="translate(0,0)"/>
<path d="" fill="#E7DBB1" transform="translate(0,0)"/>
<path d="" fill="#E6DAB2" transform="translate(0,0)"/>
<path d="" fill="#E8DCB7" transform="translate(0,0)"/>
<path d="" fill="#E8D9B3" transform="translate(0,0)"/>
<path d="" fill="#E7DBB2" transform="translate(0,0)"/>
<path d="" fill="#E5D9AF" transform="translate(0,0)"/>
<path d="" fill="#E9DAB2" transform="translate(0,0)"/>
<path d="" fill="#E6DAAD" transform="translate(0,0)"/>
<path d="" fill="#E4D7B0" transform="translate(0,0)"/>
<path d="" fill="#E3D6AA" transform="translate(0,0)"/>
<path d="" fill="#E1D5A6" transform="translate(0,0)"/>
<path d="" fill="#ECDEBA" transform="translate(0,0)"/>
<path d="" fill="#DCCFA6" transform="translate(0,0)"/>
<path d="" fill="#DED3A7" transform="translate(0,0)"/>
<path d="" fill="#DBCC9E" transform="translate(0,0)"/>
<path d="" fill="#E6DAB2" transform="translate(0,0)"/>
<path d="" fill="#E3D7B0" transform="translate(0,0)"/>
<path d="" fill="#E5D8B1" transform="translate(0,0)"/>
<path d="" fill="#E3D6AC" transform="translate(0,0)"/>
<path d="" fill="#D9C897" transform="translate(0,0)"/>
<path d="" fill="#E4D8AD" transform="translate(0,0)"/>
<path d="" fill="#D3C280" transform="translate(0,0)"/>
<path d="" fill="#E4D6AE" transform="translate(0,0)"/>
<path d="" fill="#E5D9AE" transform="translate(0,0)"/>
<path d="" fill="#D7C98B" transform="translate(0,0)"/>
<path d="" fill="#E6D8AF" transform="translate(0,0)"/>
<path d="" fill="#D5C385" transform="translate(0,0)"/>
<path d="" fill="#E5D8AE" transform="translate(0,0)"/>
<path d="" fill="#E5D7AD" transform="translate(0,0)"/>
<path d="" fill="#E4D6AB" transform="translate(0,0)"/>
<path d="" fill="#D9C992" transform="translate(0,0)"/>
<path d="" fill="#DECF9D" transform="translate(0,0)"/>
<path d="" fill="#E1D3A4" transform="translate(0,0)"/>
<path d="" fill="#E2D4A7" transform="translate(0,0)"/>
<path d="" fill="#E3D5A8" transform="translate(0,0)"/>
<path d="" fill="#E5D8AB" transform="translate(0,0)"/>
<path d="" fill="#E5D8AB" transform="translate(0,0)"/>
<path d="" fill="#E5D8AD" transform="translate(0,0)"/>
<path d="" fill="#E5D8AD" transform="translate(0,0)"/>
<path d="" fill="#E5D7AD" transform="translate(0,0)"/>
<path d="" fill="#E4D8AD" transform="translate(0,0)"/>
<path d="" fill="#E7DAB1" transform="translate(0,0)"/>
<path d="" fill="#E6DAB0" transform="translate(0,0)"/>
<path d="" fill="#E7DBB0" transform="translate(0,0)"/>
<path d="" fill="#E7DBB0" transform="translate(0,0)"/>
<path d="" fill="#E6DBB0" transform="translate(0,0)"/>
<path d="" fill="#E7D9AF" transform="translate(0,0)"/>
<path d="" fill="#E5D9B0" transform="translate(0,0)"/>
<path d="" fill="#E7D9B1" transform="translate(0,0)"/>
<path d="" fill="#E6D9B0" transform="translate(0,0)"/>
<path d="" fill="#E7D8AF" transform="translate(0,0)"/>
<path d="" fill="#E5D8AD" transform="translate(0,0)"/>
<path d="" fill="#E4D9AD" transform="translate(0,0)"/>
<path d="" fill="#E4D7AC" transform="translate(0,0)"/>
<path d="" fill="#E4D5AA" transform="translate(0,0)"/>
</svg>
